<?xml version="1.0" encoding="UTF-8" standalone="no"?>
<svg
   xmlns:dc="http://purl.org/dc/elements/1.1/"
   xmlns:cc="http://creativecommons.org/ns#"
   xmlns:rdf="http://www.w3.org/1999/02/22-rdf-syntax-ns#"
   xmlns:svg="http://www.w3.org/2000/svg"
   xmlns="http://www.w3.org/2000/svg"
   width="50.000046mm"
   height="128.0015mm"
   viewBox="0 0 50.000046 128.0015"
   version="1.1"
   id="svg1315">
  <defs
     id="defs1309" />
  <metadata
     id="metadata1312">
    <rdf:RDF>
      <cc:Work
         rdf:about="">
        <dc:format>image/svg+xml</dc:format>
        <dc:type
           rdf:resource="http://purl.org/dc/dcmitype/StillImage" />
        <dc:title></dc:title>
      </cc:Work>
    </rdf:RDF>
  </metadata>
  <g
     id="layer1"
     transform="translate(-56.30664,-70.15799)">
    <path
       id="path1571-9-7"
       style="display:inline;fill:#ff0000;fill-opacity:1;stroke-width:3.82171"
       d="m 212.81445,265.16406 v 19.07813 a 23.625826,23.625826 0 0 1 12.86719,-3.8125 23.625826,23.625826 0 0 1 16.38281,6.60351 24.423307,24.423307 0 0 1 11.88282,-3.08593 24.423307,24.423307 0 0 1 14.10937,4.48828 35.722565,35.722565 0 0 0 5.55664,-19.13672 35.722565,35.722565 0 0 0 -0.24023,-4.13477 z m 62.46094,0 a 37.611967,37.611967 0 0 1 0.22852,4.13477 37.611967,37.611967 0 0 1 -5.94532,20.29101 24.423307,24.423307 0 0 1 8.8125,18.75391 44.371642,44.371642 0 0 1 3.52149,-0.89453 v 1.91797 a 42.481032,42.481032 0 0 0 -3.59961,0.96093 24.423307,24.423307 0 0 1 -8.7207,16.81446 17.869609,17.869609 0 0 1 2.49804,9.10937 17.869609,17.869609 0 0 1 -17.86914,17.8711 17.869609,17.869609 0 0 1 -2.07422,-0.1211 15.660472,15.660472 0 0 1 2.13867,7.89844 15.660472,15.660472 0 0 1 -1.6621,7.01953 42.481032,42.481032 0 0 0 29.28906,23.4082 v 1.9336 a 44.371638,44.371638 0 0 1 -29.56055,-21.74024 44.371638,44.371638 0 0 1 -0.26953,-0.49023 44.371638,44.371638 0 0 1 -0.26367,-0.49414 44.371638,44.371638 0 0 1 -0.25977,-0.49805 44.371638,44.371638 0 0 1 -0.0898,-0.17773 44.371638,44.371638 0 0 1 -0.002,-0.002 15.660472,15.660472 0 0 1 -1.46875,1.80468 15.660472,15.660472 0 0 1 0,0.002 15.660472,15.660472 0 0 1 -11.37305,4.89453 15.660472,15.660472 0 0 1 -4.91602,-0.79102 15.660472,15.660472 0 0 1 -0.30664,-0.10547 15.660472,15.660472 0 0 1 -0.0117,-0.004 15.660472,15.660472 0 0 1 -0.30078,-0.11133 15.660472,15.660472 0 0 1 -0.6289,-0.25391 15.660472,15.660472 0 0 1 -0.29297,-0.1289 15.660472,15.660472 0 0 1 -0.61133,-0.29297 15.660472,15.660472 0 0 1 -0.2832,-0.14649 15.660472,15.660472 0 0 1 -0.0117,-0.006 15.660472,15.660472 0 0 1 -0.043,-0.0234 18.788032,18.788032 0 0 1 -2.22461,1.8789 18.788032,18.788032 0 0 1 -0.084,0.0606 18.788032,18.788032 0 0 1 -10.89257,3.47851 18.788032,18.788032 0 0 1 -5.1836,-0.73046 v 2.93554 a 21.622678,21.622678 0 0 0 5.1836,0.63086 21.622678,21.622678 0 0 0 13.70117,-4.89648 18.495118,18.495118 0 0 0 6.90625,1.33984 18.495118,18.495118 0 0 0 12.31055,-4.69336 47.20628,47.20628 0 0 0 30.97656,21.45313 v 65.33593 H 212.8125 v 2.83399 h 69.08008 v 1.69922 H 212.8125 v 2.83398 h 69.08008 v 279.08789 h 1.49414 v 0.002 h 11.28711 a 14.513385,14.513385 0 0 1 7.63867,-10.71485 11.979788,11.979788 0 0 0 -11.32617,-8.08008 11.979788,11.979788 0 0 0 -6.25977,1.76758 v -2.16015 a 13.868977,13.868977 0 0 1 2.90625,-1.08399 21.565984,21.565984 0 0 1 13.2168,-11.29101 16.720368,16.720368 0 0 0 -16.12305,-13.21485 v -1.88867 a 18.610393,18.610393 0 0 1 17.95703,14.64063 21.565984,21.565984 0 0 1 4.37696,-0.44922 21.565984,21.565984 0 0 1 1.25586,0.0371 21.603899,21.603899 0 0 0 0.33007,-0.3711 c -0.29041,-0.33222 -0.47265,-0.76043 -0.47265,-1.23828 v -12.0957 c 0,-1.04693 0.84369,-1.89063 1.89062,-1.89063 h 3.88086 a 21.603899,21.603899 0 0 0 -1.39843,-6.68945 20.031497,20.031497 0 0 1 -4.86719,-7.52344 21.603899,21.603899 0 0 0 -15.3125,-6.36719 v -0.002 a 21.603899,21.603899 0 0 0 -7.64063,1.39844 v -2.00977 a 23.493544,23.493544 0 0 1 7.41797,-1.27734 23.493544,23.493544 0 0 1 0.002,0 23.493544,23.493544 0 0 1 0.22071,0 23.493544,23.493544 0 0 1 14.42383,4.94922 20.031497,20.031497 0 0 1 -0.31446,-3.53516 20.031497,20.031497 0 0 1 0,-0.14648 26.328189,26.328189 0 0 0 -14.11133,-4.10156 l 0.002,-0.002 a 26.328189,26.328189 0 0 0 -7.64063,1.13477 V 655.3943 h 117.0625 v -2.83594 h -117.0625 v -1.70507 h 117.0625 V 648.0193 H 284.72656 V 503.24219 a 26.305512,26.305512 0 0 0 20.00586,-16.85742 18.187086,18.187086 0 0 0 7.29883,1.52929 18.187086,18.187086 0 0 0 18.1875,-18.1875 18.187086,18.187086 0 0 0 -0.01,-0.58203 20.031497,20.031497 0 0 1 -2.82812,0.32422 15.35244,15.35244 0 0 1 0.002,0.25977 15.35244,15.35244 0 0 1 -15.35156,15.35351 15.35244,15.35244 0 0 1 -6.46484,-1.42773 15.35244,15.35244 0 0 1 -0.8086,-0.40625 15.35244,15.35244 0 0 1 -0.31836,-0.17578 15.35244,15.35244 0 0 1 -0.14062,-0.0801 15.35244,15.35244 0 0 1 -0.18555,-0.11133 15.35244,15.35244 0 0 1 -0.21094,-0.12891 15.35244,15.35244 0 0 1 -0.55859,-0.36718 15.35244,15.35244 0 0 1 -0.26172,-0.1836 15.35244,15.35244 0 0 1 -0.0684,-0.0469 15.35244,15.35244 0 0 1 -0.0117,-0.0117 23.470866,23.470866 0 0 1 -0.38672,1.58203 23.470866,23.470866 0 0 1 -0.41015,1.30664 23.470866,23.470866 0 0 1 -17.47852,15.32422 v -1.92969 a 21.581065,21.581065 0 0 0 16.61133,-17.68164 15.35244,15.35244 0 0 1 -1.55664,-1.76367 23.916851,23.916851 0 0 1 -10.66211,2.50781 23.916851,23.916851 0 0 1 -4.39258,-0.4082 v -1.92383 a 22.027624,22.027624 0 0 0 4.39258,0.44336 22.027624,22.027624 0 0 0 21.61524,-17.79492 20.031497,20.031497 0 0 1 -4.25782,-12.34571 20.031497,20.031497 0 0 1 0.5586,-4.69921 22.027624,22.027624 0 0 0 -3.81055,-4.10547 17.699528,17.699528 0 0 1 -16.7207,11.89453 17.699528,17.699528 0 0 1 -1.77735,-0.0899 v -1.90039 a 15.809047,15.809047 0 0 0 1.77735,0.0996 15.809047,15.809047 0 0 0 15.80859,-15.80859 15.809047,15.809047 0 0 0 -2.60156,-8.68555 15.04252,15.04252 0 0 1 -13.99024,9.51758 15.04252,15.04252 0 0 1 -0.99414,-0.0352 v -1.89453 a 13.152897,13.152897 0 0 0 0.99414,0.0391 13.152897,13.152897 0 0 0 13.15235,-13.15235 13.152897,13.152897 0 0 0 -0.22071,-2.38867 h 1.91993 a 15.04252,15.04252 0 0 1 0.12304,0.96484 16.444724,16.444724 0 0 1 1.18946,-0.96484 h 3.69726 a 14.554157,14.554157 0 0 0 -4.87109,3.63086 15.04252,15.04252 0 0 1 -0.30469,2.01562 17.699528,17.699528 0 0 1 3.79687,10.95313 17.699528,17.699528 0 0 1 -0.41992,3.83203 23.916851,23.916851 0 0 1 3.92774,3.84961 20.031497,20.031497 0 0 1 18.34961,-13.09961 14.554157,14.554157 0 0 0 -8.33594,-11.18164 h 3.69922 a 16.444724,16.444724 0 0 1 6.55078,11.23047 20.031497,20.031497 0 0 1 10.68555,4.05469 28.011543,28.011543 0 0 0 8.86523,-15.28516 h 1.92969 a 29.901734,29.901734 0 0 1 -9.33399,16.51367 20.031497,20.031497 0 0 1 1.9375,2.07031 32.736378,32.736378 0 0 0 10.2793,-18.58398 h 49.44336 v -2.83398 H 284.72656 v -1.70508 H 401.7832 v -2.83399 h -25.78711 a 20.031497,20.031497 0 0 1 -6.28906,1.01367 20.031497,20.031497 0 0 1 -6.28906,-1.01367 h -30.62109 a 20.031497,20.031497 0 0 1 -6.28907,1.01367 20.031497,20.031497 0 0 1 -6.29101,-1.01367 h -35.49024 v -1.70507 h 31.70703 a 20.031497,20.031497 0 0 1 -3.76953,-2.83594 h -27.9375 v -1.69727 h 26.35742 a 20.031497,20.031497 0 0 1 -1.96289,-2.83398 h -24.39453 v -1.70508 H 308.25 a 20.031497,20.031497 0 0 1 -1.03125,-2.83594 H 284.72656 V 265.16406 h -1.80859 z m -49.62695,17.15625 a 21.735475,21.735475 0 0 0 -12.83399,4.21875 v 25.74805 a 17.544568,17.544568 0 0 1 14.75196,8.76172 16.151811,16.151811 0 0 1 6.77734,-1.49024 16.151811,16.151811 0 0 1 5.51563,0.97071 21.735475,21.735475 0 0 0 3.9121,-4.42578 h -16.75195 c -0.014,0 -0.0272,-0.004 -0.041,-0.004 h -1.19141 c -1.04693,0 -1.89063,-0.84213 -1.89063,-1.88867 V 302.121 c 0,-1.04654 0.8437,-1.89062 1.89063,-1.89062 H 227 c 0.007,-7e-5 0.0127,-0.002 0.0195,-0.002 h 20.05859 a 21.735475,21.735475 0 0 0 -21.39648,-17.90821 21.735475,21.735475 0 0 0 -0.0332,0 z m 28.02929,3.51758 a 22.534397,22.534397 0 0 0 -10.25781,2.60938 23.625826,23.625826 0 0 1 5.57617,11.78125 h 13.79883 c 1.10111,0 1.98828,0.84369 1.98828,1.89062 v 12.09375 c 0,1.04693 -0.88717,1.89063 -1.98828,1.89063 h -16.78906 a 23.625826,23.625826 0 0 1 -4.24414,5.25976 16.151811,16.151811 0 0 1 1.41601,0.82617 17.869609,17.869609 0 0 1 11.02344,-3.80664 17.869609,17.869609 0 0 1 14.31836,7.17969 22.534397,22.534397 0 0 0 7.96289,-17.19141 22.534397,22.534397 0 0 0 -22.53515,-22.5332 22.534397,22.534397 0 0 0 -0.26954,0 z m -40.86328,28.33984 v 30.09571 a 18.788032,18.788032 0 0 1 5.18164,-0.73047 18.788032,18.788032 0 0 1 1.23047,0.043 11.102362,11.102362 0 0 1 0.5918,-0.81446 16.151811,16.151811 0 0 1 -1.625,-7.0625 16.151811,16.151811 0 0 1 7.70703,-13.76757 15.654964,15.654964 0 0 0 -13.08594,-7.76368 z m 41.16016,6.09571 a 15.980315,15.980315 0 0 0 -9.21875,3.08984 16.151811,16.151811 0 0 1 5.74023,12.3457 16.151811,16.151811 0 0 1 -6.42968,12.89844 15.980315,15.980315 0 0 0 10.13476,3.625 15.980315,15.980315 0 0 0 15.98047,-15.98047 15.980315,15.980315 0 0 0 -15.98047,-15.97851 15.980315,15.980315 0 0 0 -0.22656,0 z m -19.80469,1.17383 a 14.262775,14.262775 0 0 0 -14.08789,14.26171 14.262775,14.262775 0 0 0 1.14453,5.59766 11.102362,11.102362 0 0 1 7.26367,-2.70703 11.102362,11.102362 0 0 1 11.08008,10.38086 14.262775,14.262775 0 0 0 9.03711,-13.27149 14.262775,14.262775 0 0 0 -14.26367,-14.26171 14.262775,14.262775 0 0 0 -0.17383,0 z m -5.67969,19.04101 a 9.2132481,9.2132481 0 0 0 -9.21289,9.21484 9.2132481,9.2132481 0 0 0 9.21289,9.2129 9.2132481,9.2132481 0 0 0 9.21485,-9.2129 9.2132481,9.2132481 0 0 0 -9.21485,-9.21484 z m -10.49218,4.94141 a 16.898544,16.898544 0 0 0 -5.1836,0.81445 v 32.16797 a 16.898544,16.898544 0 0 0 5.1836,0.81445 16.898544,16.898544 0 0 0 11.54297,-4.55664 15.660472,15.660472 0 0 1 -6.59571,-12.76953 15.660472,15.660472 0 0 1 0.19727,-2.46875 11.102362,11.102362 0 0 1 -5.75391,-9.72852 11.102362,11.102362 0 0 1 0.85352,-4.27148 16.898544,16.898544 0 0 0 -0.24414,-0.002 z m 24.42968,4.26367 a 16.151811,16.151811 0 0 1 -2.91211,1.31641 11.102362,11.102362 0 0 1 -11.02539,9.79492 11.102362,11.102362 0 0 1 -3.55273,-0.58399 13.771607,13.771607 0 0 0 -0.10352,1.67969 13.771607,13.771607 0 0 0 13.77149,13.77149 13.771607,13.771607 0 0 0 13.77148,-13.77149 13.771607,13.771607 0 0 0 -2.86133,-8.4043 17.869609,17.869609 0 0 1 -7.08789,-3.80273 z m 103.36719,47.57031 a 20.031497,20.031497 0 0 1 -1.03125,2.83594 h 6.68555 a 20.031497,20.031497 0 0 1 -1.0293,-2.83594 z m 43.20117,0 a 20.031497,20.031497 0 0 1 -1.03125,2.83594 h 13.81836 v -2.83594 z m -45.10156,4.54102 a 20.031497,20.031497 0 0 1 -1.96289,2.83398 h 12.35156 a 20.031497,20.031497 0 0 1 -1.96289,-2.83398 z m 43.20117,0 a 20.031497,20.031497 0 0 1 -1.96484,2.83398 h 16.65234 v -2.83398 z m -46.74414,4.53125 a 20.031497,20.031497 0 0 1 -3.76953,2.83594 h 23.05078 a 20.031497,20.031497 0 0 1 -3.76758,-2.83594 z m 43.19922,0 a 20.031497,20.031497 0 0 1 -3.76953,2.83594 h 22.00195 v -2.83594 z m -71.27734,57.21679 a 23.916851,23.916851 0 0 1 -0.64844,2.10938 13.946302,13.946302 0 0 0 3.52734,0.45312 13.946302,13.946302 0 0 0 0.22461,-0.002 20.031497,20.031497 0 0 1 -3.10351,-2.56055 z m -1.30664,3.7461 a 23.916851,23.916851 0 0 1 -9.50977,10.76172 13.462747,13.462747 0 0 0 10.57422,5.13086 13.462747,13.462747 0 0 0 13.46289,-13.46289 13.462747,13.462747 0 0 0 -0.004,-0.26563 20.031497,20.031497 0 0 1 -7.47265,-1.86133 15.836221,15.836221 0 0 1 -2.86524,0.26172 15.836221,15.836221 0 0 1 -4.18554,-0.56445 z m 54.62695,64.89062 c -12.73653,-2.6e-4 -25.04628,4.59098 -34.67187,12.93164 1.09415,0.24681 2.16562,0.58539 3.20312,1.01172 8.83405,-7.12826 19.82661,-11.04583 31.17773,-11.11133 0.0501,-7e-5 0.10028,-7e-5 0.15039,0 0.0462,-3e-5 0.0924,-3e-5 0.13868,0 7.24336,2.3e-4 14.40058,1.57079 20.97851,4.60352 0.35414,0.16328 0.70639,0.3307 1.05664,0.50195 0.11944,0.0586 0.24032,0.11802 0.35938,0.17774 0.0578,0.0302 0.116,0.0584 0.17383,0.0879 0.11943,0.0601 0.23836,0.12041 0.35742,0.18164 0.0578,0.0302 0.116,0.0596 0.17383,0.0898 0.11792,0.0612 0.23597,0.12319 0.35351,0.18555 0.0575,0.0302 0.11443,0.0612 0.17188,0.0918 0.13266,0.0703 0.26454,0.14145 0.39648,0.21289 0.1028,-0.0507 0.20623,-0.10006 0.31055,-0.14844 0.10431,-0.0488 0.209,-0.0961 0.31445,-0.14258 0.10583,-0.0461 0.21178,-0.0905 0.31836,-0.13476 0.10583,-0.0442 0.21178,-0.087 0.31836,-0.12891 0.0404,-0.0151 0.0787,-0.0303 0.11914,-0.0469 0.0661,-0.0264 0.1327,-0.05 0.19922,-0.0742 l 0.002,-0.002 c 0.0695,-0.0264 0.13907,-0.05 0.20899,-0.0742 0.0389,-0.0151 0.0783,-0.0267 0.11718,-0.041 0.034,-0.0113 0.0715,-0.0219 0.10743,-0.0332 0.0722,-0.0265 0.14423,-0.0488 0.21679,-0.0723 0.11037,-0.034 0.22287,-0.0703 0.33399,-0.10352 0.21997,-0.0658 0.44148,-0.1269 0.66406,-0.18359 0.0624,-0.0151 0.12514,-0.0303 0.1875,-0.0469 0.0265,-0.008 0.0532,-0.012 0.0801,-0.0195 1.20676,-0.28648 2.44146,-0.43838 3.68164,-0.45312 0.0673,-4.2e-4 0.13427,-4.2e-4 0.20117,0 1.62369,2.3e-4 3.23878,0.23585 4.79492,0.69922 v -2.93946 c -1.56771,-0.39515 -3.17819,-0.59521 -4.79492,-0.5957 -2.48912,8.3e-4 -4.95541,0.4747 -7.26758,1.39649 -7.46929,-3.82526 -15.74095,-5.82024 -24.13281,-5.82032 z m 0,4.72266 c -10.70487,-8e-5 -21.10542,3.56204 -29.5625,10.125 5.58361,3.0181 9.40647,8.50387 10.30469,14.78711 h 3.54101 c 1.41039,-9.86793 9.86188,-17.1973 19.83008,-17.19727 4.4244,8e-5 8.72425,1.46498 12.22852,4.16602 1.30877,-2.64102 3.28908,-4.89139 5.74218,-6.52539 -6.82956,-3.51901 -14.40112,-5.35513 -22.08398,-5.35547 z m 31.35156,4.42578 c -5.82376,0.0189 -11.10372,3.42643 -13.52148,8.72461 4.02863,3.7855 6.31381,9.06761 6.31445,14.5957 -7e-5,1.46366 -0.16062,2.9229 -0.47851,4.35157 2.33181,1.41486 5.00687,2.1633 7.73437,2.16406 1.6309,-4.6e-4 3.25072,-0.26833 4.79492,-0.79297 v -28.25 c -1.5442,-0.52464 -3.16402,-0.79255 -4.79492,-0.79297 -0.0151,-4e-5 -0.0341,-4e-5 -0.0488,0 z m -179.45703,2.84961 a 22.503307,22.503307 0 0 0 -4.66992,0.54297 v 2.91601 a 19.668661,19.668661 0 0 1 4.91406,-0.625 19.668661,19.668661 0 0 1 13.25391,5.13672 19.668661,19.668661 0 0 1 0.16797,0.1543 19.668661,19.668661 0 0 1 0.10547,0.0996 19.668661,19.668661 0 0 1 0.94531,0.95898 19.668661,19.668661 0 0 1 0.0976,0.10743 19.668661,19.668661 0 0 1 0.15235,0.16992 19.668661,19.668661 0 0 1 0.0117,0.0156 19.668661,19.668661 0 0 1 0.49609,0.58399 18.882519,18.882519 0 0 1 0.002,0 18.882519,18.882519 0 0 1 0.33985,-0.13282 18.882519,18.882519 0 0 1 0.34375,-0.125 18.882519,18.882519 0 0 1 0.3457,-0.12109 18.882519,18.882519 0 0 1 0.34766,-0.11133 18.882519,18.882519 0 0 1 0.69922,-0.20508 18.882519,18.882519 0 0 1 0.002,0 18.882519,18.882519 0 0 1 0.70703,-0.17773 18.882519,18.882519 0 0 1 0.002,0 18.882519,18.882519 0 0 1 0.082,-0.0195 18.882519,18.882519 0 0 1 0.0215,-0.008 18.882519,18.882519 0 0 1 4.07031,-0.45899 18.882519,18.882519 0 0 1 0.0625,0 18.882519,18.882519 0 0 1 18.88086,18.88281 18.882519,18.882519 0 0 1 -6.87305,14.57227 27.830552,27.830552 0 0 1 0.42969,0.11328 27.830552,27.830552 0 0 1 0.32617,0.0898 27.830552,27.830552 0 0 1 0.10157,0.0293 27.830552,27.830552 0 0 1 0.0117,0.004 27.830552,27.830552 0 0 1 0.41407,0.12109 27.830552,27.830552 0 0 1 0.32226,0.0996 27.830552,27.830552 0 0 1 0.0996,0.0312 27.830552,27.830552 0 0 1 0.32227,0.10547 27.830552,27.830552 0 0 1 0.0996,0.0332 27.830552,27.830552 0 0 1 0.32031,0.11133 27.830552,27.830552 0 0 1 0.10156,0.0332 27.830552,27.830552 0 0 1 18.4961,26.2168 27.830552,27.830552 0 0 1 -11.78907,22.74024 27.830552,27.830552 0 0 1 -0.004,0.002 27.830552,27.830552 0 0 1 -0.65625,0.44922 27.830552,27.830552 0 0 1 -0.0547,0.0351 27.830552,27.830552 0 0 1 -0.0195,0.0137 27.830552,27.830552 0 0 1 -0.10742,0.0684 27.830552,27.830552 0 0 1 -0.92774,0.58008 19.167873,19.167873 0 0 1 0,0.002 19.167873,19.167873 0 0 1 0.0762,0.36132 19.167873,19.167873 0 0 1 0.0684,0.36133 19.167873,19.167873 0 0 1 0,0.002 19.167873,19.167873 0 0 1 0.0625,0.35937 19.167873,19.167873 0 0 1 0,0.002 19.167873,19.167873 0 0 1 0.0547,0.36329 19.167873,19.167873 0 0 1 0,0.002 19.167873,19.167873 0 0 1 0.0469,0.36328 19.167873,19.167873 0 0 1 0,0.002 19.167873,19.167873 0 0 1 0.041,0.36328 19.167873,19.167873 0 0 1 0,0.002 19.167873,19.167873 0 0 1 0.0352,0.36328 19.167873,19.167873 0 0 1 0,0.002 19.167873,19.167873 0 0 1 0.0254,0.36524 19.167873,19.167873 0 0 1 0,0.002 19.167873,19.167873 0 0 1 0.0391,1.20312 19.167873,19.167873 0 0 1 -19.16797,19.16797 19.167873,19.167873 0 0 1 -8.2207,-1.85547 19.167873,19.167873 0 0 1 -0.25977,-0.125 19.167873,19.167873 0 0 1 -0.10351,-0.0508 19.167873,19.167873 0 0 1 -0.1875,-0.0957 19.167873,19.167873 0 0 1 -0.18555,-0.0937 19.167873,19.167873 0 0 1 -0.16211,-0.0859 19.167873,19.167873 0 0 1 -0.55078,-0.31055 19.167873,19.167873 0 0 1 -0.0859,-0.0508 19.167873,19.167873 0 0 1 -0.16211,-0.0976 19.167873,19.167873 0 0 1 -0.52539,-0.32813 19.167873,19.167873 0 0 1 -0.082,-0.0547 19.167873,19.167873 0 0 1 -0.16211,-0.10743 21.093543,21.093543 0 0 1 -2.23047,1.52539 21.093543,21.093543 0 0 1 -0.2832,0.16602 21.093543,21.093543 0 0 1 -10.48828,2.79297 21.093543,21.093543 0 0 1 -4.25586,-0.4336 v 2.88868 a 23.928189,23.928189 0 0 0 4.25586,0.38086 23.928189,23.928189 0 0 0 13.13086,-3.92579 22.002519,22.002519 0 0 0 10.55859,2.69922 22.002519,22.002519 0 0 0 22.00195,-22.0039 22.002519,22.002519 0 0 0 -0.17382,-2.74805 30.665195,30.665195 0 0 0 13.28125,-25.25977 30.665195,30.665195 0 0 0 -18.73047,-28.24804 21.717165,21.717165 0 0 0 4.56054,-13.3125 21.717165,21.717165 0 0 0 -21.71679,-21.7168 21.717165,21.717165 0 0 0 -0.0195,0 21.717165,21.717165 0 0 0 -6.15039,0.89648 22.503307,22.503307 0 0 0 -16.08399,-6.76562 22.503307,22.503307 0 0 0 -0.24414,0 z m 0.24414,4.72266 a 17.779517,17.779517 0 0 0 -4.91406,0.69336 v 24.74804 a 33.248504,33.248504 0 0 1 14.05859,6.59766 15.465827,15.465827 0 0 1 4.67383,-3.07031 17.779517,17.779517 0 0 0 3.96289,-11.18946 17.779517,17.779517 0 0 0 -17.78125,-17.77929 z m 22.25391,5.86914 a 16.992631,16.992631 0 0 0 -5.85742,1.04297 19.669688,19.668874 0 0 1 3.27539,10.86718 19.669688,19.668874 0 0 1 -2.90039,10.2793 15.465827,15.465827 0 0 1 3.06054,-0.30859 15.465827,15.465827 0 0 1 13.5293,7.97265 16.992631,16.992631 0 0 0 5.88477,-12.85937 16.992631,16.992631 0 0 0 -16.99219,-16.99414 z m 106.34961,12.71289 c -0.29964,2.09435 -0.9292,4.12803 -1.86524,6.02539 4.20101,3.64864 6.61353,8.93961 6.61328,14.5039 -2.6e-4,0.50514 -0.0204,1.01013 -0.0605,1.51368 4.45878,2.01127 7.32543,6.44845 7.32617,11.33984 -2.8e-4,2.14284 -0.55397,4.24924 -1.60742,6.11523 3.62018,-3.07472 8.21514,-4.76302 12.96484,-4.76367 6.56718,8e-4 12.71688,3.22048 16.45899,8.61719 1.68623,-1.19206 3.70056,-1.83214 5.76562,-1.83203 4.76833,2.6e-4 8.87131,3.37121 9.79688,8.04883 l 0.0605,-0.0684 v -44.62891 c -1.55603,0.46413 -3.17116,0.70027 -4.79492,0.70117 -2.89168,6.8e-4 -5.73455,-0.7447 -8.25391,-2.16406 -2.69797,8.22648 -10.37562,13.78872 -19.0332,13.78906 -9.9682,4e-5 -18.41969,-7.32937 -19.83008,-17.19726 z m -2.80469,7.7207 c -3.65255,5.89157 -10.09151,9.47596 -17.02344,9.47656 -3.79296,-3e-5 -7.50795,-1.07692 -10.71289,-3.10547 -0.81946,2.04734 -1.24041,4.23226 -1.24023,6.4375 8.5e-4,5.46339 2.57945,10.60613 6.95703,13.875 2.25885,-4.36822 6.76588,-7.11147 11.68359,-7.11132 0.59976,1.1e-4 1.19882,0.041 1.79297,0.12304 2.1823,-3.99254 6.3699,-6.47544 10.91992,-6.47461 1.10304,-2.2e-4 2.20121,0.1463 3.26563,0.43555 0.014,-0.28233 0.0211,-0.56498 0.0215,-0.84766 -6.7e-4,-4.87653 -2.05707,-9.52683 -5.66406,-12.80859 z m -130.71289,1.07227 v 61.26367 a 31.358231,31.358231 0 0 0 24.65234,-30.63086 31.358231,31.358231 0 0 0 -24.65234,-30.63281 z m 99.19141,2.18945 -0.002,0.002 c -1.4315,2.97835 -2.1751,6.24041 -2.17578,9.54492 1.1e-4,6.29904 2.69493,12.29714 7.4043,16.48047 0.94441,-0.49349 1.9267,-0.91083 2.9375,-1.24804 -0.60469,-0.46398 -1.18124,-0.9636 -1.72656,-1.4961 -0.0751,-0.0695 -0.11711,-0.10523 -0.19141,-0.1914 -0.2603,-0.26155 -0.51301,-0.53051 -0.75781,-0.80664 -0.16309,-0.18369 -0.32262,-0.37078 -0.47852,-0.56055 -0.23361,-0.28498 -0.45896,-0.57691 -0.67578,-0.875 -0.0726,-0.099 -0.1442,-0.19829 -0.21484,-0.29883 -0.14064,-0.20183 -0.27738,-0.40628 -0.41016,-0.61328 -0.13289,-0.20636 -0.26184,-0.41549 -0.38672,-0.62695 -0.18761,-0.31711 -0.36608,-0.63949 -0.53515,-0.9668 -0.11229,-0.21884 -0.2204,-0.43934 -0.32422,-0.66211 -0.1039,-0.22261 -0.20355,-0.44732 -0.29883,-0.67383 -0.048,-0.11338 -0.0948,-0.22765 -0.14063,-0.3418 -0.0454,-0.11338 -0.0896,-0.22765 -0.13281,-0.34179 -0.13047,-0.34545 -0.25097,-0.69451 -0.36133,-1.04688 -0.0363,-0.11678 -0.0714,-0.23402 -0.10547,-0.35156 -0.11996,-0.41106 -0.22614,-0.82601 -0.31836,-1.24414 -0.29975,-1.35851 -0.45102,-2.74555 -0.45117,-4.13672 3.7e-4,-0.29518 0.01,-0.59007 0.0234,-0.88476 v -0.0117 c 0.0117,-0.24265 0.028,-0.48471 0.0488,-0.72657 0.01,-0.1217 0.0211,-0.24353 0.0332,-0.36523 0.0132,-0.12246 0.0276,-0.24511 0.043,-0.36719 0.0151,-0.12208 0.0314,-0.24196 0.0488,-0.36328 0.017,-0.12132 0.0351,-0.24234 0.0547,-0.36328 0.0197,-0.12132 0.0405,-0.24234 0.0625,-0.36328 0.0132,-0.0722 0.0268,-0.14461 0.041,-0.2168 0.01,-0.0488 0.0191,-0.0977 0.0293,-0.14648 0.0242,-0.12019 0.0497,-0.23994 0.0762,-0.35938 0.0268,-0.12019 0.0549,-0.23994 0.084,-0.35937 0.0287,-0.11944 0.0587,-0.23837 0.0899,-0.35742 0.0314,-0.11868 0.0639,-0.23913 0.0976,-0.35743 0.0333,-0.1183 0.0679,-0.23635 0.10352,-0.35351 0.0359,-0.11755 0.0731,-0.23282 0.11133,-0.34961 0.0367,-0.11301 0.0745,-0.22564 0.11328,-0.33789 0.005,-0.0113 0.009,-0.0282 0.0137,-0.041 0.0295,-0.0854 0.0593,-0.17082 0.0898,-0.25586 0.0155,-0.0431 0.031,-0.0862 0.0469,-0.1289 0.0351,-0.0934 0.0709,-0.18632 0.10742,-0.2793 0.0451,-0.11452 0.0914,-0.22841 0.13867,-0.3418 0.0276,-0.068 0.0556,-0.13389 0.084,-0.20117 l 0.008,-0.0195 c -0.78274,-0.60926 -1.51913,-1.2758 -2.20312,-1.99414 z m -74.44532,0.0762 a 13.575444,13.575444 0 0 0 -9.23828,3.62891 33.248504,33.248504 0 0 1 11.00781,23.40429 13.575444,13.575444 0 0 0 11.80664,-13.45898 13.575444,13.575444 0 0 0 -13.57617,-13.57422 z m 15.02539,9.91602 a 15.465827,15.465827 0 0 1 0.44141,3.6582 15.465827,15.465827 0 0 1 -13.67578,15.36328 33.248504,33.248504 0 0 1 -6.49219,19.17188 21.093543,21.093543 0 0 1 5.16797,11.60351 25.941543,25.941543 0 0 0 7.17773,1.01172 25.941543,25.941543 0 0 0 25.94141,-25.94141 25.941543,25.941543 0 0 0 -18.56055,-24.86718 z m 93.31836,1.85547 c -3.65749,3e-4 -7.05403,1.8944 -8.97656,5.00585 5.58433,1.65472 9.4154,6.78505 9.41602,12.60938 -3.7e-4,1.17936 -0.15934,2.35328 -0.47266,3.49023 0.011,4e-5 0.0219,4e-5 0.0332,0 5.82808,-7e-5 10.55264,-4.72462 10.55274,-10.55273 -9e-5,-5.82807 -4.72466,-10.55266 -10.55274,-10.55273 z m -12.71289,6.35156 c -4.09372,6.8e-4 -7.86482,2.22235 -9.84961,5.80273 0.97041,-0.15534 1.95092,-0.23904 2.9336,-0.25 0.0762,-4.1e-4 0.15236,-4.1e-4 0.22851,0 7.05133,9.1e-4 13.58287,3.70914 17.19727,9.76367 0.49846,-1.29301 0.75404,-2.66693 0.7539,-4.05273 -1.1e-4,-6.22069 -5.04296,-11.26356 -11.26367,-11.26367 z m 58.69922,14.22851 c -1.69746,0.008 -3.34948,0.54901 -4.72265,1.54688 1.68241,2.99535 2.56617,6.37308 2.5664,9.80859 -3.4e-4,1.4744 -0.16325,2.94421 -0.48633,4.38281 0.86113,0.30237 1.76712,0.45677 2.67969,0.45704 4.4722,-8e-5 8.09758,-3.6255 8.09766,-8.09766 -8e-5,-4.4722 -3.62546,-8.09758 -8.09766,-8.09766 -0.0113,-3e-5 -0.0258,-3e-5 -0.0371,0 z m -38.75,0.0918 c -2.11088,1.50985 -4.64106,2.32185 -7.23633,2.32227 -0.23387,1.1e-4 -0.46768,-0.008 -0.70117,-0.0195 -0.0374,0.0835 -0.076,0.16722 -0.11523,0.25 -0.0389,0.0824 -0.0786,0.16445 -0.11914,0.24609 -0.005,0.008 -0.009,0.0198 -0.0137,0.0273 -0.005,0.008 -0.007,0.0178 -0.0117,0.0254 -0.0415,0.0816 -0.0838,0.16326 -0.12696,0.24414 l -0.0117,0.0234 c 0.7525,1.69039 1.26716,3.47692 1.5293,5.3086 h 3.54297 c 0.43186,-3.02115 1.54788,-5.90393 3.26367,-8.42774 z m 48.64453,9.5957 c -0.4066,2.52484 -1.76631,4.79751 -3.79883,6.34961 -0.0703,0.0537 -0.1395,0.10643 -0.21093,0.15821 -0.0718,0.0518 -0.14581,0.10245 -0.21875,0.15234 -0.0737,0.0499 -0.14782,0.0985 -0.22266,0.14648 -0.0741,0.048 -0.14744,0.0949 -0.22266,0.14063 -0.0756,0.0457 -0.15336,0.0905 -0.23046,0.13477 -0.0771,0.0438 -0.15457,0.087 -0.23243,0.1289 -0.0782,0.0419 -0.15695,0.0834 -0.23632,0.12305 -0.079,0.0401 -0.15816,0.0794 -0.23829,0.11719 -0.0801,0.0378 -0.16092,0.0742 -0.24218,0.10937 -0.0816,0.034 -0.1637,0.0699 -0.2461,0.10352 -0.0816,0.034 -0.1637,0.0651 -0.24609,0.0957 -0.0828,0.0302 -0.1661,0.0607 -0.25,0.0898 -0.0843,0.0302 -0.16887,0.0571 -0.25391,0.084 -0.0843,0.0264 -0.16886,0.0516 -0.2539,0.0762 -0.085,0.0265 -0.17007,0.048 -0.25586,0.0703 -0.0854,0.0227 -0.17164,0.0444 -0.25781,0.0645 -0.0862,0.0189 -0.17284,0.0377 -0.25977,0.0547 -0.0869,0.0189 -0.17441,0.0342 -0.26172,0.0508 -0.0869,0.0151 -0.17441,0.0304 -0.26172,0.041 -0.0877,0.0113 -0.17561,0.0256 -0.26367,0.0332 -0.0877,0.0113 -0.17561,0.0199 -0.26367,0.0312 -0.0884,0.008 -0.17681,0.0139 -0.26563,0.0215 -0.0884,0.008 -0.1768,0.0118 -0.26562,0.0156 -0.0884,0.004 -0.17681,0.008 -0.26563,0.008 -0.0442,3.1e-4 -0.0886,3.1e-4 -0.13281,0 -0.0884,-1.5e-4 -0.17681,-0.001 -0.26562,-0.004 -0.35415,-0.0113 -0.70752,-0.0387 -1.0586,-0.0859 -0.16063,-0.0227 -0.32086,-0.0467 -0.48047,-0.0762 -0.61659,0.34583 -1.2404,0.6786 -1.87109,0.99805 -0.60635,1.48686 -1.38934,2.89542 -2.33203,4.19531 1.61839,-0.67295 3.20238,-1.4258 4.74609,-2.25586 0.4193,0.0416 0.84038,0.0625 1.26172,0.0625 3.80976,-6.4e-4 7.42189,-1.69545 9.85742,-4.625 z m -55.45312,4.50196 c -0.18614,1.30242 -0.50017,2.58336 -0.9375,3.82422 2.09326,0.96593 4.25309,1.78054 6.46289,2.4375 -1.0015,-1.96385 -1.67198,-4.0795 -1.98438,-6.26172 z m -114.65821,3.08203 a 33.248504,33.248504 0 0 1 -18.85937,11.30859 v 19.88477 a 19.203361,19.203361 0 0 0 4.25586,0.47851 19.203361,19.203361 0 0 0 19.20312,-19.20312 19.203361,19.203361 0 0 0 -4.59961,-12.46875 z m 113.00782,2.49414 c -0.39819,0.8609 -0.85703,1.69239 -1.37305,2.48828 4.18429,1.9426 8.60454,3.33 13.14844,4.12695 -1.20495,-1.06223 -2.27776,-2.26553 -3.19532,-3.58398 -2.94603,-0.74812 -5.8179,-1.76269 -8.58007,-3.03125 z m -86.9375,7.50781 a 27.830698,27.871061 0 0 1 -12.53907,2.98828 27.830698,27.871061 0 0 1 -7.04492,-0.91015 21.093543,21.093543 0 0 1 0.004,0.38867 21.093543,21.093543 0 0 1 -6.59961,15.32422 17.277785,17.277785 0 0 0 9.19531,2.65234 17.277785,17.277785 0 0 0 17.27735,-17.27734 17.277785,17.277785 0 0 0 -0.29297,-3.16602 z m 80.71484,57.75195 a 20.031497,20.031497 0 0 1 -2.38867,1.52735 23.338583,23.338583 0 0 1 2.09375,3.45703 h 3.11719 a 26.173229,26.173229 0 0 0 -2.82227,-4.98438 z m -23.26953,0.46094 a 23.493544,23.493544 0 0 1 0.64258,4.52344 h 4.16992 13.00195 3.0293 a 21.447975,21.447975 0 0 0 -1.69531,-2.61914 20.031497,20.031497 0 0 1 -7.83399,1.5957 20.031497,20.031497 0 0 1 -11.31445,-3.5 z m 29.64648,12.20117 v 2.90039 a 15.356221,15.356221 0 0 1 11.76954,13.5625 15.356221,15.356221 0 0 1 0.0117,0.12696 15.356221,15.356221 0 0 1 0.0527,1.25586 15.356221,15.356221 0 0 1 -0.0625,1.38086 18.992126,18.992126 0 0 1 14.03906,18.33398 18.992126,18.992126 0 0 1 -0.20898,2.79883 h 2.86132 a 21.826772,21.826772 0 0 0 0.18165,-2.79883 21.826772,21.826772 0 0 0 -13.99024,-20.37109 18.190867,18.190867 0 0 0 -14.6543,-17.18946 z m 0,4.84571 v 1.46289 c 0,1.04693 -0.84369,1.88867 -1.89062,1.88867 h -3.04688 a 23.338583,23.338583 0 0 1 -6.52929,11.30469 18.680315,18.680315 0 0 1 10.49023,11.5664 13.467339,13.467339 0 0 0 10.92188,-13.22265 13.467339,13.467339 0 0 0 -9.94532,-13 z m -34.10546,3.35156 a 21.565984,21.565984 0 0 1 14.61328,9.82031 18.680315,18.680315 0 0 1 0.69922,-0.0156 18.680315,18.680315 0 0 1 5.31835,0.77539 21.447975,21.447975 0 0 0 6.58594,-10.58008 h -4.94336 -13.00195 z m -3.67383,1.57422 a 19.675746,19.675746 0 0 0 -17.09766,9.9414 13.868977,13.868977 0 0 1 1.02344,-0.0391 13.868977,13.868977 0 0 1 13.06055,9.20508 14.513385,14.513385 0 0 1 4.97851,-0.88086 14.513385,14.513385 0 0 1 0.47852,0.008 18.680315,18.680315 0 0 1 13.71484,-9.78906 19.675746,19.675746 0 0 0 -16.1582,-8.44531 z m 18.79883,10.12109 a 16.790609,16.790609 0 0 0 -14.3125,8.32422 14.513385,14.513385 0 0 1 11.83007,12.14063 h 19.05274 a 16.790609,16.790609 0 0 0 0.4082,-3.67383 16.790609,16.790609 0 0 0 -16.79101,-16.79102 16.790609,16.790609 0 0 0 -0.1875,0 z m 30.46484,1.21094 a 15.356221,15.356221 0 0 1 -11.98438,11.79492 18.680315,18.680315 0 0 1 0.38868,3.78516 18.680315,18.680315 0 0 1 -0.36719,3.67383 h 24.16797 a 17.10293,17.10293 0 0 0 0.23242,-2.79883 17.10293,17.10293 0 0 0 -12.4375,-16.45508 z m -47.4082,8.7832 a 12.623576,12.623576 0 0 0 -12.32813,10.47071 h 24.875 a 12.623576,12.623576 0 0 0 -12.4375,-10.47071 12.623576,12.623576 0 0 0 -0.10937,0 z"
       transform="scale(0.26458333)" />
    <text
       xml:space="preserve"
       style="font-style:normal;font-variant:normal;font-weight:normal;font-stretch:normal;font-size:10.5833px;line-height:1.25;font-family:Manjari;-inkscape-font-specification:Manjari;letter-spacing:0px;word-spacing:0px;fill:#000000;fill-opacity:1;stroke:none;stroke-width:0.264583"
       x="79.260857"
       y="85.073395"
       id="text8622"><tspan
         id="tspan8620"
         x="79.260857"
         y="85.073395"
         style="stroke-width:0.264583" /></text>
  </g>
</svg>
