<?xml version="1.0" encoding="UTF-8" standalone="no"?>
<svg
   xmlns:dc="http://purl.org/dc/elements/1.1/"
   xmlns:cc="http://creativecommons.org/ns#"
   xmlns:rdf="http://www.w3.org/1999/02/22-rdf-syntax-ns#"
   xmlns:svg="http://www.w3.org/2000/svg"
   xmlns="http://www.w3.org/2000/svg"
   width="49.999748mm"
   height="128.00174mm"
   viewBox="0 0 49.999748 128.00174"
   version="1.1"
   id="svg2258">
  <defs
     id="defs2252" />
  <metadata
     id="metadata2255">
    <rdf:RDF>
      <cc:Work
         rdf:about="">
        <dc:format>image/svg+xml</dc:format>
        <dc:type
           rdf:resource="http://purl.org/dc/dcmitype/StillImage" />
        <dc:title></dc:title>
      </cc:Work>
    </rdf:RDF>
  </metadata>
  <g
     id="layer1"
     transform="translate(296.38678,-0.25508238)">
    <path
       id="path1571-9-7"
       style="display:inline;fill:#ff0000;fill-opacity:1;stroke-width:3.82171"
       d="M 0 0 L 0 19.078125 A 23.625826 23.625826 0 0 1 12.867188 15.265625 A 23.625826 23.625826 0 0 1 29.25 21.869141 A 24.423307 24.423307 0 0 1 41.132812 18.783203 A 24.423307 24.423307 0 0 1 55.242188 23.271484 A 35.722565 35.722565 0 0 0 60.798828 4.1347656 A 35.722565 35.722565 0 0 0 60.558594 0 L 0 0 z M 62.460938 0 A 37.611968 37.611968 0 0 1 62.689453 4.1347656 A 37.611968 37.611968 0 0 1 56.744141 24.425781 A 24.423307 24.423307 0 0 1 65.556641 43.179688 A 44.371642 44.371642 0 0 1 69.080078 42.285156 L 69.080078 44.203125 A 42.481036 42.481036 0 0 0 65.478516 45.164062 A 24.423307 24.423307 0 0 1 56.757812 61.978516 A 17.869609 17.869609 0 0 1 59.255859 71.087891 A 17.869609 17.869609 0 0 1 41.386719 88.958984 A 17.869609 17.869609 0 0 1 39.3125 88.837891 A 15.660472 15.660472 0 0 1 41.451172 96.736328 A 15.660472 15.660472 0 0 1 39.789062 103.75586 A 42.481036 42.481036 0 0 0 69.080078 127.16406 L 69.080078 129.09766 A 44.371638 44.371638 0 0 1 39.519531 107.35742 A 44.371638 44.371638 0 0 1 39.25 106.86719 A 44.371638 44.371638 0 0 1 38.986328 106.37305 A 44.371638 44.371638 0 0 1 38.726562 105.875 A 44.371638 44.371638 0 0 1 38.636719 105.69727 A 44.371638 44.371638 0 0 1 38.634766 105.69531 L 38.632812 105.69531 A 15.660472 15.660472 0 0 1 37.164062 107.5 A 15.660472 15.660472 0 0 1 37.164062 107.50195 A 15.660472 15.660472 0 0 1 25.791016 112.39648 A 15.660472 15.660472 0 0 1 20.875 111.60547 A 15.660472 15.660472 0 0 1 20.568359 111.5 A 15.660472 15.660472 0 0 1 20.558594 111.49609 A 15.660472 15.660472 0 0 1 20.257812 111.38477 A 15.660472 15.660472 0 0 1 19.628906 111.13086 A 15.660472 15.660472 0 0 1 19.335938 111.00195 A 15.660472 15.660472 0 0 1 18.724609 110.70898 A 15.660472 15.660472 0 0 1 18.441406 110.5625 A 15.660472 15.660472 0 0 1 18.429688 110.55664 A 15.660472 15.660472 0 0 1 18.386719 110.5332 A 18.788032 18.788032 0 0 1 16.162109 112.41211 A 18.788032 18.788032 0 0 1 16.078125 112.47266 A 18.788032 18.788032 0 0 1 5.1855469 115.95117 A 18.788032 18.788032 0 0 1 0.001953125 115.2207 L 0.001953125 118.15625 A 21.622678 21.622678 0 0 0 5.1855469 118.78711 A 21.622678 21.622678 0 0 0 18.886719 113.89062 A 18.495118 18.495118 0 0 0 25.792969 115.23047 A 18.495118 18.495118 0 0 0 38.103516 110.53711 A 47.20628 47.20628 0 0 0 69.080078 131.99023 L 69.080078 197.32031 L 0 197.32031 L 0 200.15625 L 69.080078 200.15625 L 69.080078 201.86133 L 0 201.86133 L 0 204.69531 L 69.080078 204.69531 L 69.080078 483.7832 L 71.914062 483.7832 L 81.859375 483.7832 A 14.513385 14.513385 0 0 1 89.498047 473.06836 A 11.979788 11.979788 0 0 0 78.171875 464.98828 A 11.979788 11.979788 0 0 0 71.914062 466.75391 L 71.914062 464.5957 A 13.868977 13.868977 0 0 1 74.818359 463.51172 A 21.565984 21.565984 0 0 1 88.035156 452.2207 A 16.720368 16.720368 0 0 0 71.914062 439.00586 L 71.914062 437.11719 A 18.610393 18.610393 0 0 1 89.869141 451.75781 A 21.565984 21.565984 0 0 1 94.246094 451.30859 A 21.565984 21.565984 0 0 1 95.501953 451.3457 A 21.603899 21.603899 0 0 0 101.15625 436.77539 A 21.603899 21.603899 0 0 0 99.732422 429.06055 A 20.031497 20.031497 0 0 1 94.865234 421.53711 A 21.603899 21.603899 0 0 0 79.552734 415.16992 L 79.552734 415.16797 A 21.603899 21.603899 0 0 0 71.914062 416.56641 L 71.914062 414.55664 A 23.493544 23.493544 0 0 1 79.330078 413.2793 A 23.493544 23.493544 0 0 1 79.332031 413.2793 A 23.493544 23.493544 0 0 1 79.552734 413.2793 A 23.493544 23.493544 0 0 1 93.976562 418.22852 A 20.031497 20.031497 0 0 1 93.662109 414.69336 A 20.031497 20.031497 0 0 1 93.662109 414.54688 A 26.328189 26.328189 0 0 0 79.550781 410.44531 L 79.552734 410.44336 A 26.328189 26.328189 0 0 0 71.914062 411.57812 L 71.914062 390.22461 L 188.96875 390.22461 L 188.96875 387.39062 L 71.914062 387.39062 L 71.914062 385.69141 L 188.96875 385.69141 L 188.96875 382.85742 L 71.914062 382.85742 L 71.914062 238.08008 A 26.305512 26.305512 0 0 0 91.919922 221.22266 A 18.187086 18.187086 0 0 0 99.21875 222.75195 A 18.187086 18.187086 0 0 0 117.40625 204.56445 A 18.187086 18.187086 0 0 0 117.39453 203.98047 A 20.031497 20.031497 0 0 1 114.56641 204.30469 A 15.35244 15.35244 0 0 1 114.56836 204.56445 A 15.35244 15.35244 0 0 1 99.216797 219.91797 A 15.35244 15.35244 0 0 1 92.751953 218.49023 A 15.35244 15.35244 0 0 1 91.943359 218.08398 A 15.35244 15.35244 0 0 1 91.625 217.9082 A 15.35244 15.35244 0 0 1 91.486328 217.82812 A 15.35244 15.35244 0 0 1 91.298828 217.7168 A 15.35244 15.35244 0 0 1 91.089844 217.58789 A 15.35244 15.35244 0 0 1 90.529297 217.2207 A 15.35244 15.35244 0 0 1 90.267578 217.03711 A 15.35244 15.35244 0 0 1 90.199219 216.99023 A 15.35244 15.35244 0 0 1 90.189453 216.98047 A 23.470866 23.470866 0 0 1 89.802734 218.5625 A 23.470866 23.470866 0 0 1 89.392578 219.86914 A 23.470866 23.470866 0 0 1 71.914062 235.19336 L 71.914062 233.26172 A 21.581065 21.581065 0 0 0 88.523438 215.58008 A 15.35244 15.35244 0 0 1 86.966797 213.81641 A 23.916851 23.916851 0 0 1 76.304688 216.32422 A 23.916851 23.916851 0 0 1 71.914062 215.91797 L 71.914062 213.99414 A 22.027624 22.027624 0 0 0 76.304688 214.43555 A 22.027624 22.027624 0 0 0 97.919922 196.64062 A 20.031497 20.031497 0 0 1 93.662109 184.29492 A 20.031497 20.031497 0 0 1 94.220703 179.5957 A 22.027624 22.027624 0 0 0 90.410156 175.49023 A 17.699528 17.699528 0 0 1 73.689453 187.38477 A 17.699528 17.699528 0 0 1 71.914062 187.29492 L 71.914062 185.39453 A 15.809047 15.809047 0 0 0 73.689453 185.49414 A 15.809047 15.809047 0 0 0 89.498047 169.68555 A 15.809047 15.809047 0 0 0 86.896484 161 A 15.04252 15.04252 0 0 1 72.90625 170.51758 A 15.04252 15.04252 0 0 1 71.914062 170.48242 L 71.914062 168.58789 A 13.152897 13.152897 0 0 0 72.90625 168.62695 A 13.152897 13.152897 0 0 0 86.058594 155.47461 A 13.152897 13.152897 0 0 0 85.837891 153.08203 L 87.757812 153.08203 A 15.04252 15.04252 0 0 1 87.880859 154.05078 A 16.444724 16.444724 0 0 1 89.074219 153.08203 L 92.775391 153.08203 A 14.554157 14.554157 0 0 0 87.896484 156.7168 A 15.04252 15.04252 0 0 1 87.591797 158.73242 A 17.699528 17.699528 0 0 1 91.388672 169.68555 A 17.699528 17.699528 0 0 1 90.96875 173.51758 A 23.916851 23.916851 0 0 1 94.896484 177.36719 A 20.031497 20.031497 0 0 1 113.24609 164.26758 A 14.554157 14.554157 0 0 0 104.90234 153.08203 L 108.60352 153.08203 A 16.444724 16.444724 0 0 1 115.16016 164.31641 A 20.031497 20.031497 0 0 1 125.8457 168.37109 A 28.011543 28.011543 0 0 0 134.71094 153.08203 L 136.64258 153.08203 A 29.901734 29.901734 0 0 1 127.30664 169.59961 A 20.031497 20.031497 0 0 1 129.24414 171.66992 A 32.736378 32.736378 0 0 0 139.52344 153.08203 L 188.96875 153.08203 L 188.96875 150.24609 L 71.914062 150.24609 L 71.914062 148.54688 L 188.96875 148.54688 L 188.96875 145.71289 L 163.18164 145.71289 A 20.031497 20.031497 0 0 1 156.89258 146.72656 A 20.031497 20.031497 0 0 1 150.60352 145.71289 L 119.98242 145.71289 A 20.031497 20.031497 0 0 1 113.69336 146.72656 A 20.031497 20.031497 0 0 1 107.40234 145.71289 L 71.914062 145.71289 L 71.914062 144.00781 L 103.61914 144.00781 A 20.031497 20.031497 0 0 1 99.849609 141.17188 L 71.914062 141.17188 L 71.914062 139.47461 L 98.269531 139.47461 A 20.031497 20.031497 0 0 1 96.306641 136.64062 L 71.914062 136.64062 L 71.914062 134.93555 L 95.435547 134.93555 A 20.031497 20.031497 0 0 1 94.404297 132.09961 L 71.914062 132.09961 L 71.914062 0.00390625 L 70.103516 0.00390625 L 70.103516 0 L 62.460938 0 z M 12.833984 17.15625 A 21.735475 21.735475 0 0 0 0 21.375 L 0 47.123047 A 17.544568 17.544568 0 0 1 14.751953 55.884766 A 16.151811 16.151811 0 0 1 21.529297 54.394531 A 16.151811 16.151811 0 0 1 27.044922 55.365234 A 21.735475 21.735475 0 0 0 30.957031 50.939453 L 14.205078 50.939453 C 13.103951 50.939453 12.216797 50.095757 12.216797 49.048828 L 12.216797 36.955078 C 12.216797 35.908149 13.103951 35.064453 14.205078 35.064453 L 34.263672 35.064453 A 21.735475 21.735475 0 0 0 12.867188 17.15625 A 21.735475 21.735475 0 0 0 12.833984 17.15625 z M 40.863281 20.673828 A 22.534397 22.534397 0 0 0 30.605469 23.283203 A 23.625826 23.625826 0 0 1 36.181641 35.064453 L 49.980469 35.064453 C 51.081559 35.064453 51.96875 35.908149 51.96875 36.955078 L 51.96875 49.048828 C 51.96875 50.095757 51.081559 50.939457 49.980469 50.939453 L 33.191406 50.939453 A 23.625826 23.625826 0 0 1 28.947266 56.199219 A 16.151811 16.151811 0 0 1 30.363281 57.025391 A 17.869609 17.869609 0 0 1 41.386719 53.21875 A 17.869609 17.869609 0 0 1 55.705078 60.398438 A 22.534397 22.534397 0 0 0 63.667969 43.207031 A 22.534397 22.534397 0 0 0 41.132812 20.673828 A 22.534397 22.534397 0 0 0 40.863281 20.673828 z M 0 49.013672 L 0 79.109375 A 18.788032 18.788032 0 0 1 5.1816406 78.378906 A 18.788032 18.788032 0 0 1 6.4121094 78.421875 A 11.102362 11.102362 0 0 1 7.0039062 77.607422 A 16.151811 16.151811 0 0 1 5.3789062 70.544922 A 16.151811 16.151811 0 0 1 13.085938 56.777344 A 15.654964 15.654964 0 0 0 0 49.013672 z M 41.160156 55.109375 A 15.980315 15.980315 0 0 0 31.941406 58.199219 A 16.151811 16.151811 0 0 1 37.681641 70.544922 A 16.151811 16.151811 0 0 1 31.251953 83.443359 A 15.980315 15.980315 0 0 0 41.386719 87.068359 A 15.980315 15.980315 0 0 0 57.367188 71.087891 A 15.980315 15.980315 0 0 0 41.386719 55.109375 A 15.980315 15.980315 0 0 0 41.160156 55.109375 z M 21.355469 56.283203 A 14.262775 14.262775 0 0 0 7.2675781 70.544922 A 14.262775 14.262775 0 0 0 8.4121094 76.142578 A 11.102362 11.102362 0 0 1 15.675781 73.435547 A 11.102362 11.102362 0 0 1 26.755859 83.816406 A 14.262775 14.262775 0 0 0 35.792969 70.544922 A 14.262775 14.262775 0 0 0 21.529297 56.283203 A 14.262775 14.262775 0 0 0 21.355469 56.283203 z M 15.675781 75.324219 A 9.2132485 9.2132485 0 0 0 6.4628906 84.539062 A 9.2132485 9.2132485 0 0 0 15.675781 93.751953 A 9.2132485 9.2132485 0 0 0 24.890625 84.539062 A 9.2132485 9.2132485 0 0 0 15.675781 75.324219 z M 5.1835938 80.265625 A 16.898544 16.898544 0 0 0 0 81.080078 L 0 113.24805 A 16.898544 16.898544 0 0 0 5.1835938 114.0625 A 16.898544 16.898544 0 0 0 16.726562 109.50586 A 15.660472 15.660472 0 0 1 10.130859 96.736328 A 15.660472 15.660472 0 0 1 10.328125 94.267578 A 11.102362 11.102362 0 0 1 4.5742188 84.539062 A 11.102362 11.102362 0 0 1 5.4277344 80.267578 A 16.898544 16.898544 0 0 0 5.1835938 80.265625 z M 29.613281 84.529297 A 16.151811 16.151811 0 0 1 26.701172 85.845703 A 11.102362 11.102362 0 0 1 15.675781 95.640625 A 11.102362 11.102362 0 0 1 12.123047 95.056641 A 13.771607 13.771607 0 0 0 12.019531 96.736328 A 13.771607 13.771607 0 0 0 25.791016 110.50781 A 13.771607 13.771607 0 0 0 39.5625 96.736328 A 13.771607 13.771607 0 0 0 36.701172 88.332031 A 17.869609 17.869609 0 0 1 29.613281 84.529297 z M 132.98047 132.09961 A 20.031497 20.031497 0 0 1 131.94922 134.93555 L 138.63477 134.93555 A 20.031497 20.031497 0 0 1 137.60547 132.09961 L 132.98047 132.09961 z M 176.18164 132.09961 A 20.031497 20.031497 0 0 1 175.15039 134.93555 L 188.96875 134.93555 L 188.96875 132.09961 L 176.18164 132.09961 z M 131.08008 136.64062 A 20.031497 20.031497 0 0 1 129.11719 139.47461 L 141.46875 139.47461 A 20.031497 20.031497 0 0 1 139.50586 136.64062 L 131.08008 136.64062 z M 174.28125 136.64062 A 20.031497 20.031497 0 0 1 172.31641 139.47461 L 188.96875 139.47461 L 188.96875 136.64062 L 174.28125 136.64062 z M 127.53711 141.17188 A 20.031497 20.031497 0 0 1 123.76758 144.00781 L 146.81836 144.00781 A 20.031497 20.031497 0 0 1 143.05078 141.17188 L 127.53711 141.17188 z M 170.73633 141.17188 A 20.031497 20.031497 0 0 1 166.9668 144.00781 L 188.96875 144.00781 L 188.96875 141.17188 L 170.73633 141.17188 z M 99.458984 198.38867 A 23.916851 23.916851 0 0 1 98.810547 200.49805 A 13.946302 13.946302 0 0 0 102.33789 200.95117 A 13.946302 13.946302 0 0 0 102.5625 200.94922 A 20.031497 20.031497 0 0 1 99.458984 198.38867 z M 98.152344 202.13477 A 23.916851 23.916851 0 0 1 88.642578 212.89648 A 13.462747 13.462747 0 0 0 99.216797 218.02734 A 13.462747 13.462747 0 0 0 112.67969 204.56445 A 13.462747 13.462747 0 0 0 112.67578 204.29883 A 20.031497 20.031497 0 0 1 105.20312 202.4375 A 15.836221 15.836221 0 0 1 102.33789 202.69922 A 15.836221 15.836221 0 0 1 98.152344 202.13477 z M 152.7793 267.02344 L 152.7793 267.02539 C 140.04278 267.02514 127.73301 271.61634 118.10742 279.95703 C 119.20156 280.20399 120.27307 280.54242 121.31055 280.96875 C 130.14463 273.8405 141.13715 269.9229 152.48828 269.85742 C 152.53855 269.85734 152.5884 269.85734 152.63867 269.85742 C 152.68478 269.85736 152.73123 269.85736 152.77734 269.85742 C 160.02073 269.85764 167.17793 271.42821 173.75586 274.46094 C 174.11 274.62414 174.46225 274.79146 174.8125 274.96289 C 174.93193 275.0217 175.05282 275.08091 175.17188 275.14062 C 175.23008 275.16973 175.28788 275.19911 175.3457 275.22852 C 175.46514 275.28861 175.58407 275.34912 175.70312 275.41016 C 175.76095 275.44001 175.81913 275.46999 175.87695 275.5 C 175.99487 275.56138 176.11293 275.62322 176.23047 275.68555 C 176.28792 275.71616 176.34489 275.74665 176.40234 275.77734 C 176.53463 275.84776 176.66692 275.91865 176.79883 275.99023 C 176.90201 275.93974 177.00506 275.89021 177.10938 275.8418 C 177.21369 275.79319 177.31838 275.74567 177.42383 275.69922 C 177.52965 275.65322 177.6356 275.60833 177.74219 275.56445 C 177.84801 275.52035 177.95396 275.47746 178.06055 275.43555 C 178.10099 275.41967 178.13925 275.40421 178.17969 275.38867 C 178.24583 275.36373 178.31239 275.33876 178.37891 275.31445 L 178.38086 275.3125 C 178.4504 275.28718 178.51992 275.26258 178.58984 275.23828 C 178.62877 275.2243 178.6681 275.21068 178.70703 275.19727 C 178.74483 275.18555 178.77855 275.17383 178.81445 275.16211 C 178.88664 275.13754 178.95868 275.11347 179.03125 275.08984 C 179.14161 275.05432 179.25412 275.01966 179.36523 274.98633 C 179.5852 274.92064 179.80672 274.85939 180.0293 274.80273 C 180.09166 274.78686 180.15443 274.77102 180.2168 274.75586 C 180.24325 274.74868 180.27004 274.74275 180.29688 274.73633 C 181.5036 274.44992 182.73834 274.29794 183.97852 274.2832 C 184.04579 274.2828 184.11279 274.2828 184.17969 274.2832 C 185.80341 274.28345 187.41846 274.51897 188.97461 274.98242 L 188.97461 272.04297 C 187.4069 271.64782 185.79642 271.44775 184.17969 271.44727 C 181.69057 271.44807 179.22427 271.92197 176.91211 272.84375 C 169.44282 269.01847 161.17117 267.02353 152.7793 267.02344 z M 152.7793 271.74805 C 142.07443 271.74798 131.67387 275.31012 123.2168 281.87305 C 128.80041 284.89117 132.62324 290.37693 133.52148 296.66016 L 137.0625 296.66016 C 138.47287 286.79224 146.92438 279.46284 156.89258 279.46289 C 161.31697 279.46299 165.61687 280.92787 169.12109 283.62891 C 170.42987 280.98791 172.41018 278.73753 174.86328 277.10352 C 168.03375 273.58451 160.46217 271.74838 152.7793 271.74805 z M 184.13086 276.17383 C 178.3071 276.19348 173.02718 279.60023 170.60938 284.89844 C 174.63801 288.68394 176.92319 293.96603 176.92383 299.49414 C 176.92379 300.95779 176.76321 302.41702 176.44531 303.8457 C 178.77713 305.26054 181.45223 306.00903 184.17969 306.00977 C 185.81059 306.00933 187.43037 305.74145 188.97461 305.2168 L 188.97461 276.9668 C 187.43037 276.44215 185.81059 276.17427 184.17969 276.17383 C 184.16457 276.1738 184.1456 276.1738 184.13086 276.17383 z M 4.6738281 279.02344 A 22.503307 22.503307 0 0 0 0.00390625 279.56641 L 0.00390625 282.48242 A 19.668661 19.668661 0 0 1 4.9179688 281.85742 A 19.668661 19.668661 0 0 1 18.171875 286.99414 A 19.668661 19.668661 0 0 1 18.339844 287.14844 A 19.668661 19.668661 0 0 1 18.445312 287.24805 A 19.668661 19.668661 0 0 1 19.390625 288.20703 A 19.668661 19.668661 0 0 1 19.488281 288.31445 A 19.668661 19.668661 0 0 1 19.640625 288.48438 A 19.668661 19.668661 0 0 1 19.652344 288.49805 A 19.668661 19.668661 0 0 1 20.148438 289.08203 A 18.882519 18.882519 0 0 1 20.150391 289.08203 A 18.882519 18.882519 0 0 1 20.490234 288.94922 A 18.882519 18.882519 0 0 1 20.833984 288.82422 A 18.882519 18.882519 0 0 1 21.179688 288.70312 A 18.882519 18.882519 0 0 1 21.527344 288.5918 A 18.882519 18.882519 0 0 1 22.226562 288.38672 A 18.882519 18.882519 0 0 1 22.228516 288.38672 A 18.882519 18.882519 0 0 1 22.935547 288.20898 A 18.882519 18.882519 0 0 1 22.9375 288.20898 A 18.882519 18.882519 0 0 1 23.017578 288.19141 A 18.882519 18.882519 0 0 1 23.041016 288.18555 A 18.882519 18.882519 0 0 1 27.111328 287.72656 A 18.882519 18.882519 0 0 1 27.173828 287.72656 A 18.882519 18.882519 0 0 1 46.056641 306.60938 A 18.882519 18.882519 0 0 1 39.183594 321.18164 A 27.830552 27.830552 0 0 1 39.613281 321.29297 A 27.830552 27.830552 0 0 1 39.939453 321.38281 A 27.830552 27.830552 0 0 1 40.041016 321.41211 A 27.830552 27.830552 0 0 1 40.052734 321.41602 A 27.830552 27.830552 0 0 1 40.466797 321.53711 A 27.830552 27.830552 0 0 1 40.789062 321.63672 A 27.830552 27.830552 0 0 1 40.888672 321.66797 A 27.830552 27.830552 0 0 1 41.210938 321.77344 A 27.830552 27.830552 0 0 1 41.310547 321.80664 A 27.830552 27.830552 0 0 1 41.630859 321.91797 A 27.830552 27.830552 0 0 1 41.730469 321.95312 A 27.830552 27.830552 0 0 1 60.226562 348.16992 A 27.830552 27.830552 0 0 1 48.4375 370.91016 A 27.830552 27.830552 0 0 1 48.435547 370.91211 A 27.830552 27.830552 0 0 1 47.779297 371.36133 A 27.830552 27.830552 0 0 1 47.724609 371.39648 A 27.830552 27.830552 0 0 1 47.705078 371.41016 A 27.830552 27.830552 0 0 1 47.597656 371.47852 A 27.830552 27.830552 0 0 1 46.669922 372.05859 A 19.167873 19.167873 0 0 1 46.669922 372.06055 A 19.167873 19.167873 0 0 1 46.746094 372.41992 A 19.167873 19.167873 0 0 1 46.814453 372.78125 A 19.167873 19.167873 0 0 1 46.814453 372.7832 A 19.167873 19.167873 0 0 1 46.876953 373.14258 A 19.167873 19.167873 0 0 1 46.876953 373.14453 A 19.167873 19.167873 0 0 1 46.931641 373.50781 A 19.167873 19.167873 0 0 1 46.931641 373.50977 A 19.167873 19.167873 0 0 1 46.978516 373.87305 A 19.167873 19.167873 0 0 1 46.978516 373.875 A 19.167873 19.167873 0 0 1 47.019531 374.23828 A 19.167873 19.167873 0 0 1 47.019531 374.24023 A 19.167873 19.167873 0 0 1 47.054688 374.60547 A 19.167873 19.167873 0 0 1 47.054688 374.60742 A 19.167873 19.167873 0 0 1 47.080078 374.97266 A 19.167873 19.167873 0 0 1 47.080078 374.97461 A 19.167873 19.167873 0 0 1 47.119141 376.17773 A 19.167873 19.167873 0 0 1 27.951172 395.3457 A 19.167873 19.167873 0 0 1 19.730469 393.49023 A 19.167873 19.167873 0 0 1 19.470703 393.36523 A 19.167873 19.167873 0 0 1 19.367188 393.31445 A 19.167873 19.167873 0 0 1 19.179688 393.21875 A 19.167873 19.167873 0 0 1 18.994141 393.12305 A 19.167873 19.167873 0 0 1 18.832031 393.03906 A 19.167873 19.167873 0 0 1 18.28125 392.72656 A 19.167873 19.167873 0 0 1 18.195312 392.67773 A 19.167873 19.167873 0 0 1 18.033203 392.57812 A 19.167873 19.167873 0 0 1 17.507812 392.25 A 19.167873 19.167873 0 0 1 17.425781 392.19531 A 19.167873 19.167873 0 0 1 17.263672 392.08789 A 21.093543 21.093543 0 0 1 15.033203 393.61328 A 21.093543 21.093543 0 0 1 14.75 393.7793 A 21.093543 21.093543 0 0 1 4.2617188 396.57227 A 21.093543 21.093543 0 0 1 0.005859375 396.13867 L 0.005859375 399.02734 A 23.928189 23.928189 0 0 0 4.2617188 399.4082 A 23.928189 23.928189 0 0 0 17.392578 395.48242 A 22.002519 22.002519 0 0 0 27.951172 398.18164 A 22.002519 22.002519 0 0 0 49.953125 376.17773 A 22.002519 22.002519 0 0 0 49.779297 373.42969 A 30.665195 30.665195 0 0 0 63.060547 348.16992 A 30.665195 30.665195 0 0 0 44.330078 319.92188 A 21.717165 21.717165 0 0 0 48.890625 306.60938 A 21.717165 21.717165 0 0 0 27.173828 284.89258 A 21.717165 21.717165 0 0 0 27.15625 284.89258 A 21.717165 21.717165 0 0 0 21.005859 285.78906 A 22.503307 22.503307 0 0 0 4.921875 279.02344 A 22.503307 22.503307 0 0 0 4.6777344 279.02344 L 4.6738281 279.02344 z M 4.9179688 283.74609 A 17.779517 17.779517 0 0 0 0.00390625 284.43945 L 0.00390625 309.1875 A 33.248504 33.248504 0 0 1 14.0625 315.78516 A 15.465827 15.465827 0 0 1 18.736328 312.71484 A 17.779517 17.779517 0 0 0 22.699219 301.52539 A 17.779517 17.779517 0 0 0 4.9179688 283.74609 z M 27.171875 289.61523 A 16.992631 16.992631 0 0 0 21.314453 290.6582 A 19.669688 19.668874 0 0 1 24.589844 301.52539 A 19.669688 19.668874 0 0 1 21.689453 311.80469 A 15.465827 15.465827 0 0 1 24.75 311.49609 A 15.465827 15.465827 0 0 1 38.279297 319.46875 A 16.992631 16.992631 0 0 0 44.164062 306.60938 A 16.992631 16.992631 0 0 0 27.171875 289.61523 z M 133.52148 302.32812 C 133.22177 304.42249 132.59233 306.45615 131.65625 308.35352 C 135.85727 312.00215 138.26976 317.29315 138.26953 322.85742 C 138.26927 323.36258 138.25056 323.86754 138.20898 324.37109 C 142.66777 326.38237 145.5344 330.81953 145.53516 335.71094 C 145.53489 337.85376 144.9812 339.96019 143.92773 341.82617 C 147.54792 338.75144 152.14288 337.06311 156.89258 337.0625 C 163.45977 337.06326 169.60945 340.28296 173.35156 345.67969 C 175.0378 344.48762 177.05213 343.84758 179.11719 343.84766 C 183.88548 343.84792 187.98849 347.21887 188.91406 351.89648 L 188.97461 351.82812 L 188.97461 307.19922 C 187.41854 307.66334 185.80349 307.89951 184.17969 307.90039 C 181.28805 307.90107 178.44514 307.15569 175.92578 305.73633 C 173.22784 313.96279 165.55015 319.52505 156.89258 319.52539 C 146.92438 319.52544 138.47287 312.19604 137.0625 302.32812 L 133.52148 302.32812 z M 130.7168 310.04883 C 127.06426 315.9404 120.62532 319.52481 113.69336 319.52539 C 109.90041 319.52535 106.18539 318.44844 102.98047 316.41992 C 102.16103 318.46723 101.74005 320.6522 101.74023 322.85742 C 101.74107 328.32082 104.3197 333.46355 108.69727 336.73242 C 110.95614 332.36417 115.46316 329.62093 120.38086 329.62109 C 120.98063 329.62118 121.57969 329.66228 122.17383 329.74414 C 124.35613 325.75162 128.54373 323.26872 133.09375 323.26953 C 134.19681 323.26932 135.29498 323.4158 136.35938 323.70508 C 136.37449 323.42275 136.38281 323.14011 136.38281 322.85742 C 136.38217 317.9809 134.32574 313.3306 130.71875 310.04883 L 130.7168 310.04883 z M 0.00390625 311.12109 L 0.00390625 372.38477 A 31.358232 31.358232 0 0 0 24.65625 341.75391 A 31.358232 31.358232 0 0 0 0.00390625 311.12109 z M 99.193359 313.3125 C 97.761863 316.29084 97.018258 319.55292 97.017578 322.85742 C 97.017692 329.15648 99.712508 335.15459 104.42188 339.33789 C 105.3663 338.84441 106.34858 338.42706 107.35938 338.08984 C 106.75469 337.62584 106.17812 337.12626 105.63281 336.59375 C 105.5576 336.52406 105.51744 336.48867 105.44336 336.40234 C 105.18295 336.1408 104.92839 335.8718 104.68359 335.5957 C 104.52032 335.41194 104.36083 335.22504 104.20508 335.03516 C 103.9715 334.75003 103.74613 334.45825 103.5293 334.16016 C 103.45673 334.06125 103.38671 333.9616 103.31641 333.86133 C 103.17581 333.65954 103.03899 333.45508 102.90625 333.24805 C 102.77321 333.04153 102.64433 332.83253 102.51953 332.62109 C 102.33207 332.30403 102.15328 331.98163 101.98438 331.6543 C 101.87212 331.43569 101.76409 331.21495 101.66016 330.99219 C 101.55622 330.7695 101.45462 330.54486 101.35938 330.31836 C 101.31137 330.2049 101.26448 330.09093 101.21875 329.97656 C 101.1734 329.86306 101.13098 329.7491 101.08789 329.63477 C 100.9575 329.28935 100.83692 328.94025 100.72656 328.58789 C 100.68877 328.47103 100.65511 328.35387 100.62109 328.23633 C 100.50128 327.82528 100.39495 327.41034 100.30273 326.99219 C 100.00302 325.63369 99.851714 324.24665 99.851562 322.85547 C 99.851903 322.56044 99.857929 322.26542 99.873047 321.9707 L 99.873047 321.96094 C 99.884385 321.71844 99.899576 321.47623 99.921875 321.23438 C 99.933214 321.11252 99.945693 320.99077 99.957031 320.86914 C 99.96837 320.74661 99.98337 320.62422 100 320.50195 C 100.01512 320.38006 100.03031 320.25827 100.04883 320.13672 C 100.06773 320.01547 100.08273 319.89438 100.10352 319.77344 C 100.12241 319.65215 100.14409 319.53106 100.16602 319.41016 C 100.18113 319.33785 100.19229 319.26555 100.20703 319.19336 C 100.21837 319.14445 100.22499 319.09567 100.23633 319.04688 C 100.25901 318.92684 100.28567 318.80701 100.3125 318.6875 C 100.33896 318.56742 100.36738 318.44767 100.39648 318.32812 C 100.42672 318.20869 100.45496 318.08957 100.48633 317.9707 C 100.51656 317.85191 100.55035 317.73342 100.58398 317.61523 C 100.618 317.49709 100.65197 317.37919 100.6875 317.26172 C 100.7253 317.14418 100.76065 317.02698 100.79883 316.91016 C 100.83662 316.79719 100.87318 316.68456 100.91211 316.57227 C 100.91589 316.55942 100.92018 316.54624 100.92773 316.5332 C 100.95797 316.44771 100.98696 316.36242 101.01758 316.27734 C 101.0327 316.23433 101.04782 316.19137 101.06445 316.14844 C 101.09847 316.05505 101.13559 315.96197 101.17188 315.86914 C 101.21685 315.75477 101.2633 315.64081 101.31055 315.52734 C 101.337 315.45946 101.36618 315.39176 101.39453 315.32422 L 101.40234 315.30664 C 100.6196 314.69739 99.8832 314.03084 99.199219 313.3125 L 99.193359 313.3125 z M 24.75 313.38672 A 13.575444 13.575444 0 0 0 15.511719 317.01562 A 33.248504 33.248504 0 0 1 26.519531 340.41992 A 13.575444 13.575444 0 0 0 38.326172 326.96094 A 13.575444 13.575444 0 0 0 24.75 313.38672 z M 39.775391 323.30273 A 15.465827 15.465827 0 0 1 40.216797 326.96094 A 15.465827 15.465827 0 0 1 26.541016 342.32422 A 33.248504 33.248504 0 0 1 20.048828 361.49609 A 21.093543 21.093543 0 0 1 25.216797 373.09961 A 25.941543 25.941543 0 0 0 32.394531 374.11133 A 25.941543 25.941543 0 0 0 58.335938 348.16992 A 25.941543 25.941543 0 0 0 39.775391 323.30273 z M 133.09375 325.1582 C 129.43626 325.15851 126.03968 327.05261 124.11719 330.16406 C 129.70152 331.81877 133.53256 336.94911 133.5332 342.77344 C 133.53283 343.95278 133.37372 345.12671 133.06055 346.26367 C 133.07189 346.26369 133.08436 346.26369 133.0957 346.26367 C 138.92377 346.26358 143.64832 341.53901 143.64844 335.71094 C 143.64832 329.88286 138.92377 325.15829 133.0957 325.1582 L 133.09375 325.1582 z M 120.38086 331.50977 C 116.28714 331.51044 112.51603 333.7321 110.53125 337.3125 C 111.50168 337.15731 112.48217 337.07376 113.46484 337.0625 C 113.54119 337.06207 113.61701 337.06207 113.69336 337.0625 C 120.74471 337.06339 127.27622 340.77163 130.89062 346.82617 C 131.38911 345.53314 131.64468 344.15922 131.64453 342.77344 C 131.64442 336.55273 126.60158 331.50989 120.38086 331.50977 z M 179.08008 345.73828 C 177.38265 345.74622 175.7306 346.28729 174.35742 347.28516 C 176.03988 350.28052 176.92364 353.65824 176.92383 357.09375 C 176.92353 358.56813 176.76054 360.03797 176.4375 361.47656 C 177.29859 361.77881 178.20458 361.93333 179.11719 361.93359 C 183.58939 361.93353 187.21481 358.30813 187.21484 353.83594 C 187.21481 349.36375 183.58939 345.73834 179.11719 345.73828 C 179.10585 345.73825 179.09142 345.73825 179.08008 345.73828 z M 140.32617 345.83203 C 138.21598 347.34025 135.68759 348.1519 133.09375 348.15234 C 132.8598 348.15243 132.62604 348.14642 132.39258 348.13281 C 132.35478 348.21653 132.31665 348.29985 132.27734 348.38281 C 132.23841 348.46521 132.19864 348.54731 132.1582 348.62891 C 132.15442 348.63798 132.15209 348.64718 132.14453 348.65625 C 132.14075 348.66532 132.13647 348.67452 132.12891 348.68359 C 132.08733 348.76538 132.04504 348.84678 132.00195 348.92773 L 131.99023 348.95117 C 132.7427 350.64158 133.25742 352.4281 133.51953 354.25977 L 137.0625 354.25977 C 137.49437 351.23864 138.61041 348.35584 140.32617 345.83203 z M 188.97461 355.42578 C 188.56797 357.95062 187.2083 360.22328 185.17578 361.77539 C 185.10548 361.8291 185.03432 361.88178 184.96289 361.93359 C 184.89108 361.9853 184.81904 362.03612 184.74609 362.08594 C 184.67239 362.13575 184.59827 362.18461 184.52344 362.23242 C 184.44936 362.28031 184.37442 362.3272 184.29883 362.37305 C 184.22324 362.41893 184.14704 362.46382 184.07031 362.50781 C 183.99321 362.55181 183.91575 362.5948 183.83789 362.63672 C 183.75965 362.67882 183.68093 362.71985 183.60156 362.75977 C 183.52257 362.79987 183.44341 362.83897 183.36328 362.87695 C 183.28316 362.91437 183.20235 362.95095 183.12109 362.98633 C 183.03946 363.02186 182.95739 363.05643 182.875 363.08984 C 182.79336 363.12273 182.7113 363.15474 182.62891 363.18555 C 182.54613 363.21654 182.46243 363.24659 182.37891 363.27539 C 182.29462 363.30449 182.21004 363.3325 182.125 363.35938 C 182.04072 363.38583 181.95613 363.41124 181.87109 363.43555 C 181.78605 363.46011 181.70103 363.48356 181.61523 363.50586 C 181.52982 363.52854 181.4436 363.55002 181.35742 363.57031 C 181.27125 363.58959 181.18459 363.60773 181.09766 363.625 C 181.01073 363.64314 180.92362 363.66013 180.83594 363.67578 C 180.74901 363.69052 180.66153 363.70414 180.57422 363.7168 C 180.48653 363.72965 180.39861 363.74137 180.31055 363.75195 C 180.22286 363.76291 180.13494 363.77256 180.04688 363.78125 C 179.95843 363.78919 179.87007 363.79669 179.78125 363.80273 C 179.69281 363.80878 179.60444 363.813 179.51562 363.81641 C 179.42718 363.82056 179.33844 363.82346 179.25 363.82422 C 179.20578 363.82451 179.16141 363.82451 179.11719 363.82422 C 179.02875 363.82406 178.94 363.82347 178.85156 363.82031 C 178.49742 363.81049 178.14409 363.78177 177.79297 363.73438 C 177.63234 363.71283 177.47207 363.68749 177.3125 363.6582 C 176.69591 364.00407 176.07206 364.3368 175.44141 364.65625 C 174.83502 366.1431 174.05206 367.55165 173.10938 368.85156 C 174.72777 368.17863 176.31176 367.42575 177.85547 366.5957 C 178.27477 366.6372 178.69585 366.65809 179.11719 366.6582 C 182.92691 366.65753 186.53908 364.96276 188.97461 362.0332 L 188.97461 355.42578 z M 133.52148 359.92773 C 133.33553 361.23016 133.02131 362.5111 132.58398 363.75195 C 134.67724 364.71791 136.8371 365.5325 139.04688 366.18945 C 138.04538 364.22563 137.37488 362.10994 137.0625 359.92773 L 133.52148 359.92773 z M 18.863281 363.00977 A 33.248504 33.248504 0 0 1 0.00390625 374.31836 L 0.00390625 394.20312 A 19.203361 19.203361 0 0 0 4.2597656 394.68164 A 19.203361 19.203361 0 0 0 23.462891 375.47852 A 19.203361 19.203361 0 0 0 18.863281 363.00977 z M 131.87109 365.50391 C 131.47292 366.3648 131.01407 367.19632 130.49805 367.99219 C 134.68236 369.93481 139.10259 371.32221 143.64648 372.11914 C 142.44153 371.05692 141.36873 369.85361 140.45117 368.53516 C 137.50514 367.78706 134.63325 366.77246 131.87109 365.50391 z M 44.933594 373.01172 A 27.830698 27.871061 0 0 1 32.394531 376 A 27.830698 27.871061 0 0 1 25.349609 375.08984 A 21.093543 21.093543 0 0 1 25.353516 375.47852 A 21.093543 21.093543 0 0 1 18.753906 390.80273 A 17.277785 17.277785 0 0 0 27.949219 393.45508 A 17.277785 17.277785 0 0 0 45.226562 376.17773 A 17.277785 17.277785 0 0 0 44.933594 373.01172 z M 125.64844 430.76367 A 20.031497 20.031497 0 0 1 123.25977 432.29102 A 23.338583 23.338583 0 0 1 127.57422 443.13281 A 23.338583 23.338583 0 0 1 127.61914 443.50586 A 23.338583 23.338583 0 0 1 127.62109 443.53516 A 23.338583 23.338583 0 0 1 127.66016 443.9082 A 23.338583 23.338583 0 0 1 127.67188 444.0293 A 23.338583 23.338583 0 0 1 127.72266 444.71875 A 23.338583 23.338583 0 0 1 127.72461 444.75 A 23.338583 23.338583 0 0 1 127.74219 445.12695 A 23.338583 23.338583 0 0 1 127.74414 445.15625 A 23.338583 23.338583 0 0 1 127.75586 445.5332 A 23.338583 23.338583 0 0 1 127.76367 445.93359 A 15.356221 15.356221 0 0 1 128.50781 445.91602 A 15.356221 15.356221 0 0 1 130.59766 446.05859 A 15.356221 15.356221 0 0 1 143.80078 459.88867 A 15.356221 15.356221 0 0 1 143.8125 460.01562 A 15.356221 15.356221 0 0 1 143.86523 461.27148 A 15.356221 15.356221 0 0 1 143.80273 462.65234 A 18.992126 18.992126 0 0 1 157.8418 480.98633 A 18.992126 18.992126 0 0 1 157.63281 483.78516 L 160.49414 483.78516 A 21.826772 21.826772 0 0 0 160.67578 480.98633 A 21.826772 21.826772 0 0 0 146.68555 460.61523 A 18.190867 18.190867 0 0 0 130.4375 443.18359 A 26.173229 26.173229 0 0 0 125.6543 430.76367 L 125.64844 430.76367 z M 102.37891 431.22461 A 23.493544 23.493544 0 0 1 103.04492 436.77344 A 23.493544 23.493544 0 0 1 97.777344 451.59766 A 21.565984 21.565984 0 0 1 112.5332 461.44336 A 18.680315 18.680315 0 0 1 113.23242 461.42773 A 18.680315 18.680315 0 0 1 118.55078 462.20312 A 21.447975 21.447975 0 0 0 125.86914 446.06641 A 21.447975 21.447975 0 0 0 121.52734 433.12891 A 20.031497 20.031497 0 0 1 113.69336 434.72461 A 20.031497 20.031497 0 0 1 102.37891 431.22461 z M 107.19141 435.74805 L 120.19336 435.74805 C 121.24029 435.74805 122.08398 436.59174 122.08398 437.63867 L 122.08398 449.73242 C 122.08398 450.77935 121.24029 451.62305 120.19336 451.62305 L 107.19141 451.62305 C 106.14448 451.62305 105.30273 450.77935 105.30273 449.73242 L 105.30273 437.63867 C 105.30273 436.59174 106.14448 435.74805 107.19141 435.74805 z M 128.50391 447.80078 A 13.467339 13.467339 0 0 0 127.69336 447.82812 A 23.338583 23.338583 0 0 1 120.55859 462.92773 A 18.680315 18.680315 0 0 1 131.04883 474.49414 A 13.467339 13.467339 0 0 0 141.9707 461.27148 A 13.467339 13.467339 0 0 0 128.50391 447.80273 L 128.50391 447.80078 z M 94.246094 453.19727 A 19.675746 19.675746 0 0 0 77.148438 463.13867 A 13.868977 13.868977 0 0 1 78.171875 463.09961 A 13.868977 13.868977 0 0 1 91.232422 472.30469 A 14.513385 14.513385 0 0 1 96.210938 471.42383 A 14.513385 14.513385 0 0 1 96.689453 471.43164 A 18.680315 18.680315 0 0 1 110.4043 461.64258 A 19.675746 19.675746 0 0 0 94.246094 453.19727 z M 113.04492 463.31836 A 16.790609 16.790609 0 0 0 98.732422 471.64258 A 14.513385 14.513385 0 0 1 110.5625 483.7832 L 129.61523 483.7832 A 16.790609 16.790609 0 0 0 130.02344 480.10938 A 16.790609 16.790609 0 0 0 113.23242 463.31836 A 16.790609 16.790609 0 0 0 113.04492 463.31836 z M 143.50977 464.5293 A 15.356221 15.356221 0 0 1 131.52539 476.32422 A 18.680315 18.680315 0 0 1 131.91406 480.10938 A 18.680315 18.680315 0 0 1 131.54883 483.7832 L 155.71484 483.7832 A 17.10293 17.10293 0 0 0 155.94922 480.98438 A 17.10293 17.10293 0 0 0 143.50977 464.5293 z M 96.101562 473.3125 A 12.623576 12.623576 0 0 0 83.773438 483.7832 L 108.64844 483.7832 A 12.623576 12.623576 0 0 0 96.210938 473.3125 A 12.623576 12.623576 0 0 0 96.101562 473.3125 z "
       transform="matrix(0.26458333,0,0,0.26458333,-296.38678,0.25508238)" />
  </g>
</svg>
