<?xml version="1.0" encoding="UTF-8" standalone="no"?>
<svg
   xmlns:dc="http://purl.org/dc/elements/1.1/"
   xmlns:cc="http://creativecommons.org/ns#"
   xmlns:rdf="http://www.w3.org/1999/02/22-rdf-syntax-ns#"
   xmlns:svg="http://www.w3.org/2000/svg"
   xmlns="http://www.w3.org/2000/svg"
   xmlns:sodipodi="http://sodipodi.sourceforge.net/DTD/sodipodi-0.dtd"
   xmlns:inkscape="http://www.inkscape.org/namespaces/inkscape"
   width="15mm"
   height="10mm"
   viewBox="0 0 15 10"
   version="1.1"
   id="svg890"
   inkscape:version="1.0.1 (3bc2e813f5, 2020-09-07)"
   sodipodi:docname="panel.svg">
  <defs
     id="defs884" />
  <sodipodi:namedview
     id="base"
     pagecolor="#ffffff"
     bordercolor="#666666"
     borderopacity="1.0"
     inkscape:pageopacity="0.0"
     inkscape:pageshadow="2"
     inkscape:zoom="15.839192"
     inkscape:cx="21.208442"
     inkscape:cy="20.554808"
     inkscape:document-units="mm"
     inkscape:current-layer="layer1"
     inkscape:document-rotation="0"
     showgrid="false"
     inkscape:window-width="1920"
     inkscape:window-height="1056"
     inkscape:window-x="0"
     inkscape:window-y="0"
     inkscape:window-maximized="1" />
  <metadata
     id="metadata887">
    <rdf:RDF>
      <cc:Work
         rdf:about="">
        <dc:format>image/svg+xml</dc:format>
        <dc:type
           rdf:resource="http://purl.org/dc/dcmitype/StillImage" />
        <dc:title />
      </cc:Work>
    </rdf:RDF>
  </metadata>
  <g
     inkscape:label="Livello 1"
     inkscape:groupmode="layer"
     id="layer1"
     transform="translate(-13.314605,-94.39637)">
    <rect
       inkscape:export-ydpi="599.5932"
       inkscape:export-xdpi="599.5932"
       rx="0.5"
       ry="0.5"
       y="95.015083"
       x="13.951786"
       height="4.1999998"
       width="7.8390021"
       id="rect1789"
       style="display:inline;fill:#ff0000;fill-opacity:1;fill-rule:nonzero;stroke:none;stroke-width:0.171168;stroke-linecap:butt;stroke-linejoin:round;stroke-miterlimit:4;stroke-dasharray:none;stroke-opacity:1;paint-order:normal" />
    <text
       id="text4706-06-3"
       y="98.375122"
       x="14.679413"
       style="font-style:normal;font-weight:normal;font-size:4.79451px;line-height:1.25;font-family:sans-serif;letter-spacing:0px;word-spacing:0px;display:inline;fill:#000000;fill-opacity:1;stroke:none;stroke-width:0.119863"
       xml:space="preserve"><tspan
         style="font-style:normal;font-variant:normal;font-weight:bold;font-stretch:normal;font-size:3.52777px;font-family:'Open Sans Condensed';-inkscape-font-specification:'Open Sans Condensed, Bold';fill:#000000;stroke-width:0.119863"
         y="98.375122"
         x="14.679413"
         id="tspan4704-8-6"
         sodipodi:role="line"
         rotate="0 0 0 0">CLK<tspan
   id="tspan4689"
   style="font-style:normal;font-variant:normal;font-weight:bold;font-stretch:condensed;font-family:'Open Sans Condensed';-inkscape-font-specification:'Open Sans Condensed, Bold Condensed';fill:#000000;stroke-width:0.119863"
   rotate="0 0">รท</tspan></tspan></text>
    <path
       id="rect1789-7"
       style="display:inline;fill:#ff0000;fill-opacity:1;fill-rule:nonzero;stroke:none;stroke-width:0.646934;stroke-linecap:butt;stroke-linejoin:round;stroke-miterlimit:4;stroke-dasharray:none;stroke-opacity:1;paint-order:normal"
       d="M 7.7675781 19.984375 C 6.720649 19.984375 5.8769531 20.82611 5.8769531 21.873047 L 5.8769531 33.96875 C 5.8769531 35.015679 6.720649 35.857422 7.7675781 35.857422 L 33.615234 35.857422 C 34.662164 35.857422 35.503906 35.015679 35.503906 33.96875 L 35.503906 21.873047 C 35.503906 20.82611 34.662164 19.984375 33.615234 19.984375 L 7.7675781 19.984375 z M 12.533203 23.027344 C 12.880423 23.027344 13.212457 23.076379 13.529297 23.171875 C 13.850476 23.267371 14.19401 23.43316 14.558594 23.671875 L 13.972656 25.111328 C 13.777355 24.976777 13.569021 24.854692 13.347656 24.746094 C 13.126302 24.633212 12.885417 24.578125 12.625 24.578125 C 12.11719 24.578125 11.71506 24.87413 11.419922 25.46875 C 11.129123 26.06337 10.984375 26.890195 10.984375 27.949219 C 10.984375 30.154069 11.558814 31.257812 12.708984 31.257812 C 13.212455 31.257813 13.739802 31.096575 14.291016 30.775391 L 14.291016 32.351562 C 13.826607 32.65972 13.232638 32.8125 12.507812 32.8125 C 11.435768 32.8125 10.610458 32.387805 10.033203 31.537109 C 9.4602873 30.682079 9.1738281 29.482646 9.1738281 27.9375 C 9.1738281 26.392379 9.468317 25.187942 10.058594 24.324219 C 10.653209 23.460496 11.478516 23.027344 12.533203 23.027344 z M 15.638672 23.164062 L 17.410156 23.164062 L 17.410156 31.132812 L 19.863281 31.132812 L 19.863281 32.683594 L 15.638672 32.683594 L 15.638672 23.164062 z M 20.996094 23.164062 L 22.767578 23.164062 L 22.767578 27.884766 L 23.386719 26.458984 L 25.007812 23.164062 L 26.902344 23.164062 L 24.701172 27.285156 L 26.927734 32.683594 L 25.039062 32.683594 L 23.476562 28.613281 L 22.767578 29.324219 L 22.767578 32.683594 L 20.996094 32.683594 L 20.996094 23.164062 z M 29.902344 24.759766 C 30.1671 24.759766 30.367404 24.842774 30.501953 25.007812 C 30.636504 25.168316 30.703125 25.402704 30.703125 25.710938 C 30.703125 26.001733 30.6315 26.231118 30.488281 26.400391 C 30.349396 26.569713 30.154083 26.654297 29.902344 26.654297 C 29.667963 26.654297 29.472649 26.581247 29.316406 26.433594 C 29.164494 26.28594 29.089844 26.045047 29.089844 25.710938 C 29.089844 25.077262 29.35981 24.759766 29.902344 24.759766 z M 27.617188 27.3125 L 32.207031 27.3125 L 32.207031 28.660156 L 27.617188 28.660156 L 27.617188 27.3125 z M 29.902344 29.310547 C 30.1671 29.310547 30.367404 29.393554 30.501953 29.558594 C 30.636504 29.719098 30.703125 29.950007 30.703125 30.253906 C 30.703125 30.549037 30.6315 30.781899 30.488281 30.951172 C 30.349396 31.120495 30.154083 31.205078 29.902344 31.205078 C 29.667963 31.205078 29.472649 31.132029 29.316406 30.984375 C 29.164494 30.832438 29.089844 30.588067 29.089844 30.253906 C 29.089844 29.624565 29.35981 29.310547 29.902344 29.310547 z "
       transform="matrix(0.26458333,0,0,0.26458333,13.314605,94.39637)" />
  </g>
</svg>
