<?xml version="1.0" encoding="UTF-8" standalone="no"?>
<svg
   xmlns:dc="http://purl.org/dc/elements/1.1/"
   xmlns:cc="http://creativecommons.org/ns#"
   xmlns:rdf="http://www.w3.org/1999/02/22-rdf-syntax-ns#"
   xmlns:svg="http://www.w3.org/2000/svg"
   xmlns="http://www.w3.org/2000/svg"
   xmlns:sodipodi="http://sodipodi.sourceforge.net/DTD/sodipodi-0.dtd"
   xmlns:inkscape="http://www.inkscape.org/namespaces/inkscape"
   width="15mm"
   height="10mm"
   viewBox="0 0 15 10"
   version="1.1"
   id="svg890"
   inkscape:version="1.0.2 (e86c870879, 2021-01-15)"
   sodipodi:docname="panel.svg">
  <defs
     id="defs884" />
  <sodipodi:namedview
     id="base"
     pagecolor="#ffffff"
     bordercolor="#666666"
     borderopacity="1.0"
     inkscape:pageopacity="0.0"
     inkscape:pageshadow="2"
     inkscape:zoom="15.839192"
     inkscape:cx="28.674866"
     inkscape:cy="17.604672"
     inkscape:document-units="mm"
     inkscape:current-layer="layer1"
     inkscape:document-rotation="0"
     showgrid="false"
     inkscape:window-width="1920"
     inkscape:window-height="1056"
     inkscape:window-x="0"
     inkscape:window-y="0"
     inkscape:window-maximized="1"
     inkscape:snap-global="false" />
  <metadata
     id="metadata887">
    <rdf:RDF>
      <cc:Work
         rdf:about="">
        <dc:format>image/svg+xml</dc:format>
        <dc:type
           rdf:resource="http://purl.org/dc/dcmitype/StillImage" />
        <dc:title></dc:title>
      </cc:Work>
    </rdf:RDF>
  </metadata>
  <g
     inkscape:label="Livello 1"
     inkscape:groupmode="layer"
     id="layer1"
     transform="translate(-13.314605,-94.39637)">
    <rect
       style="display:inline;fill:#ff0000;fill-opacity:1;fill-rule:nonzero;stroke:none;stroke-width:0.210721;stroke-linecap:butt;stroke-linejoin:round;stroke-miterlimit:4;stroke-dasharray:none;stroke-opacity:1;paint-order:normal"
       id="rect1789-36"
       width="11.744789"
       height="4.2484717"
       x="14.330533"
       y="94.86377"
       ry="0.5"
       rx="0.469908" />
    <text
       id="text4706-06-7"
       y="98.248047"
       x="14.939973"
       style="font-style:normal;font-weight:normal;font-size:4.79452px;line-height:1.25;font-family:sans-serif;letter-spacing:0px;word-spacing:0px;fill:#000000;fill-opacity:1;stroke:none;stroke-width:0.119863"
       xml:space="preserve"><tspan
         style="font-style:normal;font-variant:normal;font-weight:bold;font-stretch:normal;font-size:3.52778px;font-family:'Open Sans Condensed';-inkscape-font-specification:'Open Sans Condensed, Bold';fill:#000000;stroke-width:0.119863"
         y="98.248047"
         x="14.939973"
         id="tspan4704-8-5"
         sodipodi:role="line">FORKS<tspan
   style="font-style:normal;font-variant:normal;font-weight:normal;font-stretch:normal;font-family:sans-serif;-inkscape-font-specification:sans-serif"
   id="tspan1133">⑃</tspan></tspan></text>
    <g
       id="g933"
       transform="matrix(1,0,0,1.038092,0.09154866,-3.5493564)">
      <g
         id="g920">
        <text
           id="text4706-06-2"
           y="98.061386"
           x="23.46139"
           style="font-style:normal;font-weight:normal;font-size:4.79452px;line-height:1.25;font-family:sans-serif;letter-spacing:0px;word-spacing:0px;fill:#000000;fill-opacity:1;stroke:none;stroke-width:0.119863"
           xml:space="preserve"><tspan
             style="font-style:normal;font-variant:normal;font-weight:bold;font-stretch:normal;font-size:3.52778px;font-family:'Open Sans Condensed';-inkscape-font-specification:'Open Sans Condensed, Bold';fill:#000000;stroke-width:0.119863"
             y="98.061386"
             x="23.46139"
             id="tspan4704-8-8"
             sodipodi:role="line"><tspan
               style="font-style:normal;font-variant:normal;font-weight:normal;font-stretch:normal;font-family:sans-serif;-inkscape-font-specification:sans-serif;stroke-width:0.119863"
               id="tspan1133-8">⑃</tspan></tspan></text>
        <text
           id="text4706-06-2-8"
           y="98.061707"
           x="23.355528"
           style="font-style:normal;font-weight:normal;font-size:4.79452px;line-height:1.25;font-family:sans-serif;letter-spacing:0px;word-spacing:0px;fill:#000000;fill-opacity:1;stroke:none;stroke-width:0.119863"
           xml:space="preserve"><tspan
             style="font-style:normal;font-variant:normal;font-weight:bold;font-stretch:normal;font-size:3.52778px;font-family:'Open Sans Condensed';-inkscape-font-specification:'Open Sans Condensed, Bold';fill:#000000;stroke-width:0.119863"
             y="98.061707"
             x="23.355528"
             id="tspan4704-8-8-8"
             sodipodi:role="line"><tspan
               style="font-style:normal;font-variant:normal;font-weight:normal;font-stretch:normal;font-family:sans-serif;-inkscape-font-specification:sans-serif;stroke-width:0.119863"
               id="tspan1133-8-8">⑃</tspan></tspan></text>
        <rect
           y="96.784203"
           x="23.897793"
           height="0.15296243"
           width="1.1162109"
           id="rect6032"
           style="fill:#000000;fill-opacity:1;fill-rule:nonzero;stroke:none;stroke-width:0.5;stroke-linecap:butt;stroke-linejoin:round;stroke-miterlimit:4;stroke-dasharray:none;stroke-opacity:1;paint-order:normal" />
        <rect
           y="95.613213"
           x="24.408356"
           height="0.058911134"
           width="0.10852051"
           id="rect6034"
           style="fill:#000000;fill-opacity:1;fill-rule:nonzero;stroke:none;stroke-width:0.511809;stroke-linecap:butt;stroke-linejoin:round;stroke-miterlimit:4;stroke-dasharray:none;stroke-opacity:1;paint-order:normal" />
        <rect
           y="98.005737"
           x="25.027943"
           height="0.058911134"
           width="0.10852051"
           id="rect6034-6"
           style="fill:#000000;fill-opacity:1;fill-rule:nonzero;stroke:none;stroke-width:0.511809;stroke-linecap:butt;stroke-linejoin:round;stroke-miterlimit:4;stroke-dasharray:none;stroke-opacity:1;paint-order:normal" />
        <rect
           y="98.002213"
           x="23.793922"
           height="0.058911134"
           width="0.10852051"
           id="rect6034-6-8"
           style="fill:#000000;fill-opacity:1;fill-rule:nonzero;stroke:none;stroke-width:0.511809;stroke-linecap:butt;stroke-linejoin:round;stroke-miterlimit:4;stroke-dasharray:none;stroke-opacity:1;paint-order:normal" />
      </g>
    </g>
    <path
       id="rect1789-36-3"
       style="display:inline;fill:#ff0000;fill-opacity:1;fill-rule:nonzero;stroke:none;stroke-width:0.796426;stroke-linecap:butt;stroke-linejoin:round;stroke-miterlimit:4;stroke-dasharray:none;stroke-opacity:1;paint-order:normal"
       d="M 7.6367188 19.810547 C 6.6527981 19.810547 5.8613281 20.654239 5.8613281 21.701172 L 5.8613281 33.978516 C 5.8613281 35.025445 6.6527981 35.867188 7.6367188 35.867188 L 48.474609 35.867188 C 49.45853 35.867188 50.25 35.025445 50.25 33.978516 L 50.25 21.701172 C 50.25 20.654239 49.45853 19.810547 48.474609 19.810547 L 7.6367188 19.810547 z M 17.605469 22.933594 C 18.703558 22.933594 19.544923 23.356775 20.130859 24.203125 C 20.716815 25.045128 21.009766 26.254582 21.009766 27.830078 C 21.009766 29.405612 20.715275 30.616503 20.125 31.462891 C 19.534721 32.30924 18.689889 32.732422 17.591797 32.732422 C 16.489369 32.732422 15.643013 32.310753 15.052734 31.46875 C 14.46247 30.6224 14.167969 29.404942 14.167969 27.816406 C 14.167969 26.240872 14.462459 25.03496 15.052734 24.197266 C 15.643013 23.355262 16.494356 22.933594 17.605469 22.933594 z M 38.021484 22.949219 C 38.75065 22.949219 39.452259 23.152585 40.125 23.560547 L 39.539062 24.980469 C 39.330735 24.859146 39.110881 24.749919 38.880859 24.654297 C 38.655172 24.559053 38.412753 24.511719 38.152344 24.511719 C 37.865893 24.511719 37.644527 24.606009 37.488281 24.796875 C 37.336382 24.983584 37.259766 25.240989 37.259766 25.566406 C 37.259766 25.887591 37.350917 26.167384 37.533203 26.40625 C 37.719836 26.644852 38.043836 26.914876 38.503906 27.21875 C 39.124565 27.635405 39.555767 28.062053 39.798828 28.496094 C 40.046236 28.930135 40.169922 29.424878 40.169922 29.980469 C 40.169922 30.870207 39.943573 31.550354 39.492188 32.023438 C 39.045134 32.496634 38.399092 32.734375 37.552734 32.734375 C 36.72374 32.734375 36.019094 32.571511 35.4375 32.246094 L 35.4375 30.494141 C 36.149306 30.958607 36.801866 31.191406 37.396484 31.191406 C 37.735028 31.191406 37.988918 31.096865 38.158203 30.910156 C 38.331797 30.723448 38.417969 30.469319 38.417969 30.148438 C 38.417969 29.831562 38.317262 29.543613 38.113281 29.283203 C 37.909289 29.018447 37.572264 28.725557 37.103516 28.404297 C 36.695531 28.122193 36.384549 27.853908 36.171875 27.597656 C 35.963544 27.337209 35.800797 27.045869 35.683594 26.724609 C 35.570737 26.403463 35.515625 26.030817 35.515625 25.605469 C 35.515625 24.789507 35.740017 24.141492 36.191406 23.664062 C 36.647138 23.186557 37.257593 22.949219 38.021484 22.949219 z M 44.705078 22.992188 C 44.882829 22.992188 44.970703 23.076266 44.970703 23.242188 L 44.970703 27.242188 L 47.050781 27.242188 C 47.210769 27.242188 47.291016 27.326266 47.291016 27.492188 L 47.291016 32.349609 C 47.291016 32.514019 47.204998 32.59413 47.048828 32.605469 L 47.048828 32.611328 L 47.029297 32.611328 C 47.026549 32.611442 47.026038 32.613281 47.023438 32.613281 C 47.020592 32.613281 47.020178 32.611366 47.017578 32.611328 L 46.820312 32.611328 C 46.815021 32.611328 46.813885 32.615234 46.808594 32.615234 C 46.803302 32.615234 46.801788 32.611479 46.796875 32.611328 L 46.638672 32.611328 L 46.638672 32.607422 C 46.632247 32.611201 46.630228 32.615234 46.623047 32.615234 C 46.445258 32.615234 46.357422 32.528886 46.357422 32.353516 L 46.357422 28.189453 L 42.664062 28.189453 L 42.664062 32.351562 C 42.664062 32.517862 42.574236 32.603516 42.396484 32.603516 C 42.391193 32.603516 42.389679 32.599761 42.384766 32.599609 L 42.384766 32.601562 L 42.195312 32.601562 C 42.189643 32.601638 42.187688 32.605469 42.181641 32.605469 C 42.175593 32.605469 42.174016 32.601751 42.167969 32.601562 L 42.003906 32.601562 C 42.001159 32.601676 42.000647 32.603516 41.998047 32.603516 C 41.995299 32.603516 41.994788 32.6016 41.992188 32.601562 L 41.974609 32.601562 L 41.974609 32.59375 C 41.817041 32.584301 41.730469 32.509988 41.730469 32.353516 L 41.730469 27.494141 C 41.730469 27.328219 41.810716 27.246094 41.970703 27.246094 L 42.365234 27.246094 C 42.367982 27.246018 42.368493 27.244141 42.371094 27.244141 L 44.037109 27.244141 L 44.037109 23.246094 C 44.037109 23.083196 44.125851 23.001146 44.296875 22.998047 L 44.296875 22.996094 L 44.304688 22.996094 L 44.699219 22.996094 C 44.701966 22.99598 44.702478 22.994141 44.705078 22.994141 L 44.705078 22.992188 z M 9.0039062 23.085938 L 13.269531 23.085938 L 13.269531 24.615234 L 10.761719 24.615234 L 10.761719 27.257812 L 13.099609 27.257812 L 13.099609 28.789062 L 10.761719 28.789062 L 10.761719 32.603516 L 9.0039062 32.603516 L 9.0039062 23.085938 z M 22.396484 23.085938 L 24.714844 23.085938 C 25.695745 23.085938 26.418403 23.316822 26.882812 23.78125 C 27.351568 24.245678 27.585938 24.955296 27.585938 25.910156 C 27.585938 27.112386 27.178822 27.952295 26.367188 28.429688 L 28.197266 32.603516 L 26.302734 32.603516 L 24.798828 28.898438 L 24.167969 28.898438 L 24.167969 32.603516 L 22.396484 32.603516 L 22.396484 23.085938 z M 29.0625 23.085938 L 30.833984 23.085938 L 30.833984 27.804688 L 31.453125 26.378906 L 33.074219 23.085938 L 34.96875 23.085938 L 32.767578 27.207031 L 34.994141 32.603516 L 33.105469 32.603516 L 31.542969 28.535156 L 30.833984 29.244141 L 30.833984 32.603516 L 29.0625 32.603516 L 29.0625 23.085938 z M 17.605469 24.498047 C 17.067272 24.498047 16.660168 24.78297 16.386719 25.351562 C 16.113266 25.915808 15.976562 26.74262 15.976562 27.832031 C 15.976562 28.917134 16.11327 29.743908 16.386719 30.3125 C 16.660152 30.880941 17.062285 31.164062 17.591797 31.164062 C 18.659506 31.164062 19.193359 30.054242 19.193359 27.832031 C 19.193359 25.60982 18.664496 24.498047 17.605469 24.498047 z M 24.167969 24.615234 L 24.167969 27.375 L 24.623047 27.375 C 25.039713 27.375 25.339198 27.257768 25.521484 27.023438 C 25.703809 26.784836 25.794922 26.431703 25.794922 25.962891 C 25.794922 25.476768 25.697241 25.131829 25.501953 24.927734 C 25.310985 24.719104 25.013029 24.615234 24.609375 24.615234 L 24.167969 24.615234 z "
       transform="matrix(0.26458333,0,0,0.26458333,13.314605,94.39637)" />
    <g
       aria-label="FORKS⑃"
       id="text4706-06-7-5"
       style="font-style:normal;font-weight:normal;font-size:4.79452px;line-height:1.25;font-family:sans-serif;letter-spacing:0px;word-spacing:0px;fill:#000000;fill-opacity:1;stroke:none;stroke-width:0.119863" />
    <g
       aria-label="⑃"
       id="text4706-06-2-2"
       style="font-style:normal;font-weight:normal;font-size:4.79452px;line-height:1.25;font-family:sans-serif;letter-spacing:0px;word-spacing:0px;fill:#000000;fill-opacity:1;stroke:none;stroke-width:0.119863"
       transform="matrix(1,0,0,1.038092,0.62636636,1.2247874)" />
    <g
       aria-label="⑃"
       id="text4706-06-2-8-9"
       style="font-style:normal;font-weight:normal;font-size:4.79452px;line-height:1.25;font-family:sans-serif;letter-spacing:0px;word-spacing:0px;fill:#000000;fill-opacity:1;stroke:none;stroke-width:0.119863"
       transform="matrix(1,0,0,1.038092,0.62636636,1.2247874)" />
  </g>
</svg>
